<svg width="32" height="32" viewBox="0 0 32 32" fill="none" xmlns="http://www.w3.org/2000/svg">
<circle opacity="0.28" cx="16" cy="16" r="16" fill="#B2A9E3"/>
<path d="M19.3333 7.66663V9.33329" stroke="#B2A9E3" stroke-linecap="round" stroke-linejoin="round"/>
<path d="M12.6667 7.66663V9.33329" stroke="#B2A9E3" stroke-linecap="round" stroke-linejoin="round"/>
<g clip-path="url(#clip0_56_5222)">
<path d="M18.3889 23.5V22.4445C18.3889 21.8846 18.1665 21.3476 17.7706 20.9517C17.3746 20.5558 16.8377 20.3334 16.2778 20.3334H13.1111C12.5512 20.3334 12.0142 20.5558 11.6183 20.9517C11.2224 21.3476 11 21.8846 11 22.4445V23.5" stroke="#B2A9E3" stroke-width="1.05556" stroke-linecap="round" stroke-linejoin="round"/>
<path d="M18.389 14.0676C18.8417 14.185 19.2426 14.4493 19.5288 14.8192C19.815 15.1891 19.9703 15.6435 19.9703 16.1112C19.9703 16.5789 19.815 17.0333 19.5288 17.4031C19.2426 17.773 18.8417 18.0374 18.389 18.1547" stroke="#B2A9E3" stroke-width="1.05556" stroke-linecap="round" stroke-linejoin="round"/>
<path d="M21.5557 23.4999V22.4444C21.5553 21.9766 21.3996 21.5222 21.1131 21.1525C20.8265 20.7828 20.4253 20.5188 19.9724 20.4019" stroke="#B2A9E3" stroke-width="1.05556" stroke-linecap="round" stroke-linejoin="round"/>
<path d="M14.6944 18.2222C15.8604 18.2222 16.8055 17.277 16.8055 16.1111C16.8055 14.9452 15.8604 14 14.6944 14C13.5285 14 12.5833 14.9452 12.5833 16.1111C12.5833 17.277 13.5285 18.2222 14.6944 18.2222Z" stroke="#B2A9E3" stroke-width="1.05556" stroke-linecap="round" stroke-linejoin="round"/>
</g>
<path d="M21.8333 9.33337H10.1667C9.24619 9.33337 8.5 10.0796 8.5 11V22.6667C8.5 23.5872 9.24619 24.3334 10.1667 24.3334H21.8333C22.7538 24.3334 23.5 23.5872 23.5 22.6667V11C23.5 10.0796 22.7538 9.33337 21.8333 9.33337Z" stroke="#B2A9E3" stroke-linecap="round" stroke-linejoin="round"/>
<defs>
<clipPath id="clip0_56_5222">
<rect width="12" height="12" fill="white" transform="translate(10 13)"/>
</clipPath>
</defs>
</svg>
