<svg width="32" height="32" viewBox="0 0 32 32" fill="none" xmlns="http://www.w3.org/2000/svg">
<circle opacity="0.28" cx="16" cy="16" r="16" fill="#B2A9E3"/>
<g clip-path="url(#clip0_56_5317)">
<path d="M18.6666 14.6667C18.6666 15.0203 18.5262 15.3595 18.2761 15.6095C18.0261 15.8596 17.6869 16 17.3333 16H12.552C12.1984 16.0001 11.8593 16.1406 11.6093 16.3907L10.1413 17.8587C10.0751 17.9249 9.99078 17.97 9.89897 17.9882C9.80716 18.0065 9.712 17.9971 9.62552 17.9613C9.53903 17.9255 9.46511 17.8648 9.4131 17.787C9.36109 17.7092 9.33333 17.6176 9.33331 17.524V10.6667C9.33331 10.3131 9.47379 9.97395 9.72384 9.7239C9.97389 9.47385 10.313 9.33337 10.6666 9.33337H17.3333C17.6869 9.33337 18.0261 9.47385 18.2761 9.7239C18.5262 9.97395 18.6666 10.3131 18.6666 10.6667V14.6667Z" stroke="#B2A9E3" stroke-width="1.33333" stroke-linecap="round" stroke-linejoin="round"/>
<path d="M21.3333 14C21.6869 14 22.0261 14.1405 22.2761 14.3905C22.5262 14.6406 22.6666 14.9797 22.6666 15.3333V22.1907C22.6666 22.2843 22.6389 22.3758 22.5869 22.4536C22.5348 22.5314 22.4609 22.5921 22.3744 22.6279C22.288 22.6637 22.1928 22.6731 22.101 22.6548C22.0092 22.6366 21.9248 22.5915 21.8586 22.5253L20.3906 21.0573C20.1407 20.8073 19.8016 20.6667 19.448 20.6667H14.6666C14.313 20.6667 13.9739 20.5262 13.7238 20.2761C13.4738 20.0261 13.3333 19.687 13.3333 19.3333V18.6667" stroke="#B2A9E3" stroke-width="1.33333" stroke-linecap="round" stroke-linejoin="round"/>
</g>
<defs>
<clipPath id="clip0_56_5317">
<rect width="16" height="16" fill="white" transform="translate(8 8)"/>
</clipPath>
</defs>
</svg>
