<svg width="32" height="32" viewBox="0 0 32 32" fill="none" xmlns="http://www.w3.org/2000/svg">
<circle opacity="0.28" cx="16" cy="16" r="16" fill="#B2A9E3"/>
<path d="M16.6666 13.3333C16.6666 11.4933 15.0266 10 13 10C10.9733 10 9.33331 11.4933 9.33331 13.3333H10.6666L11.3333 12.6667L12 13.3333H14.6666" stroke="#B2A9E3" stroke-width="1.33333" stroke-linecap="round" stroke-linejoin="round"/>
<path d="M16.6667 12.76C17.3417 12.2609 18.1605 11.9942 19 12C21.0267 12 22.6667 13.4933 22.6667 15.3333H20.6667L20 14.6666L19.3333 15.3333H17.3333" stroke="#B2A9E3" stroke-width="1.33333" stroke-linecap="round" stroke-linejoin="round"/>
<path d="M11.9267 14.4733C10.4933 15.9066 10.3933 18.12 11.6933 19.4266L14.52 16.5933L14.9867 16.1266L15.46 15.6533L16.8733 14.24C15.5733 12.9333 13.36 13.04 11.9267 14.4733Z" stroke="#B2A9E3" stroke-width="1.33333" stroke-linecap="round" stroke-linejoin="round"/>
<path d="M15.3334 18.3334C15.6667 20 15.22 21.3334 14.6667 22.6667H17.3334C18.6667 19 17 14.6667 16.6667 13.3334" stroke="#B2A9E3" stroke-width="1.33333" stroke-linecap="round" stroke-linejoin="round"/>
</svg>
