<svg width="16" height="16" viewBox="0 0 16 16" fill="none" xmlns="http://www.w3.org/2000/svg">
<path d="M8.00001 8.66663V14L5.33334 11.3333" stroke="#333333" stroke-width="1.33333" stroke-linecap="round" stroke-linejoin="round"/>
<path d="M8 14L10.6667 11.3334" stroke="#333333" stroke-width="1.33333" stroke-linecap="round" stroke-linejoin="round"/>
<path d="M2.92868 10.1793C2.38419 9.70297 1.95789 9.10659 1.68345 8.43724C1.40902 7.76788 1.29396 7.04389 1.34736 6.32244C1.40076 5.60098 1.62116 4.90182 1.99115 4.28017C2.36114 3.65852 2.8706 3.13139 3.47928 2.74043C4.08797 2.34947 4.77921 2.10537 5.49843 2.02742C6.21764 1.94946 6.94513 2.03979 7.62345 2.29125C8.30177 2.54272 8.91233 2.94845 9.40693 3.47639C9.90152 4.00433 10.2666 4.64003 10.4733 5.33329H11.6667C12.3147 5.33321 12.9454 5.54297 13.4643 5.93119C13.9831 6.31942 14.3624 6.86522 14.5452 7.48694C14.728 8.10866 14.7046 8.77287 14.4785 9.38017C14.2523 9.98748 13.8356 10.5052 13.2907 10.856" stroke="#333333" stroke-width="1.33333" stroke-linecap="round" stroke-linejoin="round"/>
</svg>
