<svg width="32" height="32" viewBox="0 0 32 32" fill="none" xmlns="http://www.w3.org/2000/svg">
<circle opacity="0.28" cx="16" cy="16" r="16" fill="#B2A9E3"/>
<path d="M18.6667 22V20.6667C18.6667 19.9594 18.3857 19.2811 17.8856 18.781C17.3855 18.281 16.7073 18 16 18H12C11.2928 18 10.6145 18.281 10.1144 18.781C9.6143 19.2811 9.33334 19.9594 9.33334 20.6667V22" stroke="#B2A9E3" stroke-width="1.33333" stroke-linecap="round" stroke-linejoin="round"/>
<path d="M14 15.3333C15.4728 15.3333 16.6667 14.1394 16.6667 12.6667C16.6667 11.1939 15.4728 10 14 10C12.5273 10 11.3333 11.1939 11.3333 12.6667C11.3333 14.1394 12.5273 15.3333 14 15.3333Z" stroke="#B2A9E3" stroke-width="1.33333" stroke-linecap="round" stroke-linejoin="round"/>
<path d="M19.3333 13.3334L22.6667 16.6667" stroke="#B2A9E3" stroke-width="1.33333" stroke-linecap="round" stroke-linejoin="round"/>
<path d="M22.6667 13.3334L19.3333 16.6667" stroke="#B2A9E3" stroke-width="1.33333" stroke-linecap="round" stroke-linejoin="round"/>
</svg>
