<?xml version="1.0" encoding="utf-8"?>
<!-- Generator: Adobe Illustrator 29.7.1, SVG Export Plug-In . SVG Version: 9.03 Build 0)  -->
<svg version="1.0" id="Layer_1" xmlns="http://www.w3.org/2000/svg" xmlns:xlink="http://www.w3.org/1999/xlink" x="0px" y="0px"
	 viewBox="0 0 34 34" style="enable-background:new 0 0 34 34;" xml:space="preserve">
<style type="text/css">
	.st0{fill:#535AB4;}
	.st1{fill:#8E89D0;}
</style>
<g>
	<path class="st0" d="M28.2,23.82L28.2,23.82c-0.3,0-0.59,0.14-0.78,0.38c-2.12,2.67-5.39,4.38-9.05,4.39
		C11.97,28.58,6.79,23.4,6.79,17c0-6.4,5.18-11.58,11.57-11.59c3.55,0.01,6.72,1.61,8.84,4.12c0.19,0.22,0.47,0.35,0.76,0.35h0
		c0.85,0,1.31-0.99,0.76-1.64c-2.48-2.94-6.19-4.81-10.33-4.83v0c-0.01,0-0.02,0-0.02,0c-0.01,0-0.02,0-0.03,0v0
		C10.86,3.45,4.8,9.52,4.8,17c0,7.48,6.05,13.55,13.53,13.59v0c0.01,0,0.02,0,0.04,0c0.01,0,0.01,0,0.02,0v0
		c4.29-0.02,8.11-2.02,10.58-5.14C29.5,24.79,29.04,23.82,28.2,23.82z"/>
	<path class="st1" d="M24,12.61c-0.42-0.39-0.98-0.59-1.56-0.59l-1.9,0c-0.77,0-1.38,0.32-1.82,0.95c0,0,0,0,0,0
		c-0.44-0.64-1.05-0.95-1.83-0.95h-1.94c-0.64,0-1.19,0.24-1.63,0.71c-0.39,0.42-0.59,0.98-0.59,1.55v7.29h0h0
		c0.02,0.64,0.55,1.16,1.2,1.16c1.87,0,3.74,0,5.61,0c0-0.62-0.26-1.23-0.7-1.66c-0.91-0.89-2.36-0.65-3.53-0.65l0,0
		c-0.14,0-0.26-0.12-0.26-0.26v-5.34c0.08-0.67,0.51-1.01,1.26-1.01c0.75,0,1.17,0.34,1.26,1.01v4.32c0.42,0,0.82-0.12,1.16-0.32
		c0.66-0.4,1.1-1.12,1.1-1.94v-2.06c0.09-0.67,0.52-1.01,1.29-1.01c0.77,0,1.2,0.34,1.29,1.01v4.32c1.28,0,2.31-1.04,2.31-2.31
		v-2.61C24.72,13.6,24.48,13.06,24,12.61z"/>
</g>
</svg>
