<svg width="783" height="234" xmlns="http://www.w3.org/2000/svg" xmlns:xlink="http://www.w3.org/1999/xlink" overflow="hidden"><g transform="translate(-231 -227)"><g><g><g><path d="M150.17 131.698C148.275 131.698 146.487 132.562 145.318 134.046 132.106 150.706 111.693 161.404 88.785 161.463 48.854 161.413 16.5062 129.036 16.5062 89.0952 16.5062 49.1639 48.8442 16.7867 88.7653 16.7277 110.907 16.7768 130.711 26.7572 143.942 42.4644 145.122 43.8594 146.85 44.6649 148.687 44.6649 153.991 44.6649 156.85 38.4664 153.431 34.4192 137.95 16.0597 114.797 4.36032 88.9228 4.25227L88.9228 4.24247C88.8739 4.24247 88.8243 4.24247 88.7653 4.24247 88.6967 4.24247 88.6282 4.24247 88.5494 4.24247L88.5494 4.25227C41.8599 4.44873 4.07011 42.3564 4.07011 89.085 4.07011 135.814 41.8599 173.722 88.5494 173.918L88.5494 173.928C88.6282 173.928 88.6967 173.928 88.7755 173.928 88.8243 173.928 88.8637 173.928 88.9132 173.928L88.9132 173.918C115.681 173.801 139.522 161.296 154.993 141.826 158.255 137.74 155.406 131.698 150.17 131.698Z" fill="#535AB4" transform="matrix(1.00001 0 0 1 265.834 246.533)"/><path d="M332.647 113.213 352.135 113.213 352.135 122.624 320.78 122.624 320.78 63.4779 332.636 63.4779 332.636 113.213 332.647 113.213Z" fill="#8E89D0" transform="matrix(1.00001 0 0 1 265.834 246.533)"/><path d="M368.323 120.368C364.708 118.363 361.869 115.525 359.806 111.851 357.743 108.177 356.712 103.943 356.712 99.14 356.712 94.3361 357.773 90.1025 359.885 86.4289 362.007 82.7545 364.895 79.926 368.568 77.912 372.242 75.9082 376.339 74.9063 380.857 74.9063 385.376 74.9063 389.472 75.9082 393.146 77.912 396.82 79.9158 399.718 82.7545 401.829 86.4289 403.951 90.1025 405.003 94.3361 405.003 99.14 405.003 103.943 403.912 108.187 401.741 111.851 399.561 115.525 396.624 118.363 392.93 120.368 389.227 122.372 385.091 123.374 380.513 123.374 376.005 123.374 371.938 122.372 368.323 120.368ZM386.584 111.468C388.47 110.427 389.983 108.855 391.113 106.772 392.242 104.68 392.802 102.146 392.802 99.1495 392.802 94.6898 391.633 91.2517 389.285 88.8549 386.938 86.4581 384.079 85.2498 380.68 85.2498 377.292 85.2498 374.452 86.4486 372.163 88.8549 369.875 91.2619 368.735 94.6898 368.735 99.1495 368.735 103.609 369.855 107.047 372.075 109.444 374.305 111.851 377.114 113.049 380.513 113.049 382.665 113.04 384.688 112.519 386.584 111.468Z" fill="#8E89D0" transform="matrix(1.00001 0 0 1 265.834 246.533)"/><path d="M413.529 86.3535C415.425 82.6799 417.989 79.8602 421.241 77.8856 424.492 75.9116 428.117 74.9192 432.125 74.9192 435.622 74.9192 438.696 75.6265 441.319 77.0411 443.952 78.4557 446.054 80.2335 447.635 82.3846L447.635 75.6856 459.581 75.6856 459.581 122.63 447.635 122.63 447.635 115.764C446.113 117.964 444.001 119.781 441.319 121.226 438.638 122.67 435.543 123.387 432.036 123.387 428.087 123.387 424.482 122.375 421.231 120.341 417.979 118.308 415.415 115.44 413.52 111.736 411.624 108.034 410.681 103.79 410.681 98.9859 410.69 94.2316 411.633 90.0272 413.529 86.3535ZM445.936 91.7269C444.807 89.664 443.284 88.0824 441.358 86.9821 439.433 85.8818 437.37 85.3319 435.17 85.3319 432.97 85.3319 430.936 85.8723 429.069 86.9427 427.203 88.0138 425.69 89.5853 424.541 91.6386 423.382 93.7015 422.802 96.1472 422.802 98.9662 422.802 101.786 423.382 104.261 424.541 106.373 425.701 108.495 427.223 110.115 429.119 111.246 431.015 112.375 433.028 112.935 435.18 112.935 437.38 112.935 439.443 112.385 441.368 111.285 443.284 110.185 444.816 108.603 445.946 106.54 447.076 104.477 447.635 102.011 447.635 99.1237 447.635 96.2551 447.066 93.7992 445.936 91.7269Z" fill="#8E89D0" transform="matrix(1.00001 0 0 1 265.834 246.533)"/><path d="M510.76 80.2932C514.208 83.8298 515.927 88.751 515.927 95.0774L515.927 122.622 504.07 122.622 504.07 96.6882C504.07 92.9657 503.137 90.0971 501.271 88.0831 499.404 86.0793 496.87 85.0774 493.648 85.0774 490.377 85.0774 487.784 86.0793 485.888 88.0831 483.992 90.0876 483.048 92.9555 483.048 96.6882L483.048 122.622 471.192 122.622 471.192 75.6768 483.059 75.6768 483.059 81.5212C484.64 79.4882 486.664 77.8964 489.109 76.7377 491.565 75.5783 494.257 74.9986 497.204 74.9986 502.793 74.9986 507.312 76.7669 510.76 80.2932Z" fill="#8E89D0" transform="matrix(1.00001 0 0 1 265.834 246.533)"/><path d="M529.925 77.3255C532.558 72.7186 536.134 69.1332 540.691 66.5597 545.24 63.986 550.338 62.7089 555.986 62.7089 562.597 62.7089 568.383 64.3986 573.353 67.7875 578.324 71.1764 581.802 75.8621 583.776 81.8545L570.132 81.8545C568.776 79.0354 566.87 76.9135 564.414 75.4989 561.958 74.0843 559.12 73.377 555.897 73.377 552.45 73.377 549.385 74.1827 546.703 75.7935 544.021 77.4043 541.929 79.6735 540.436 82.6106 538.933 85.5478 538.186 88.9961 538.186 92.9446 538.186 96.8443 538.933 100.273 540.436 103.239 541.929 106.206 544.021 108.495 546.703 110.106 549.385 111.717 552.45 112.522 555.897 112.522 559.12 112.522 561.958 111.805 564.414 110.361 566.87 108.917 568.776 106.795 570.132 103.957L583.776 103.957C581.802 109.998 578.334 114.703 573.393 118.063 568.452 121.422 562.646 123.102 555.976 123.102 550.328 123.102 545.229 121.815 540.682 119.251 536.134 116.677 532.548 113.112 529.915 108.534 527.283 103.957 525.976 98.7598 525.976 92.9446 525.976 87.1396 527.292 81.9332 529.925 77.3255Z" fill="#535AB4" transform="matrix(1.00001 0 0 1 265.834 246.533)"/><path d="M624.443 122.61 611.388 99.5649 605.798 99.5649 605.798 122.61 593.932 122.61 593.932 63.4646 616.132 63.4646C620.71 63.4646 624.6 64.2702 627.822 65.8811 631.044 67.4921 633.461 69.6633 635.071 72.4036 636.683 75.1446 637.488 78.2093 637.488 81.5986 637.488 85.4982 636.358 89.0151 634.099 92.1484 631.84 95.2817 628.48 97.443 624.01 98.6316L638.166 122.61 624.443 122.61ZM605.798 90.655 615.71 90.655C618.932 90.655 621.329 89.8792 622.91 88.3268 624.492 86.775 625.278 84.6138 625.278 81.8436 625.278 79.1325 624.492 77.0303 622.91 75.5274 621.329 74.0341 618.922 73.2779 615.71 73.2779L605.798 73.2779 605.798 90.655Z" fill="#535AB4" transform="matrix(1.00001 0 0 1 265.834 246.533)"/><path d="M712.734 63.4646 712.734 122.61 700.869 122.61 700.869 84.1427 685.026 122.61 676.045 122.61 660.112 84.1427 660.112 122.61 648.255 122.61 648.255 63.4646 661.733 63.4646 680.546 107.443 699.355 63.4646 712.734 63.4646Z" fill="#535AB4" transform="matrix(1.00001 0 0 1 265.834 246.533)"/><path d="M255.132 63.743 255.132 122.849 243.276 122.849 243.276 84.4013 227.441 122.849 218.463 122.849 202.539 84.4013 202.539 122.849 190.682 122.849 190.682 63.743 204.15 63.743 222.951 107.692 241.753 63.743 255.132 63.743Z" fill="#535AB4" transform="matrix(1.00001 0 0 1 265.834 246.533)"/><path d="M311.694 75.9266 282.646 145.033 270.023 145.033 280.181 121.654 261.379 75.9266 274.68 75.9266 286.791 108.707 299.071 75.9266 311.694 75.9266Z" fill="#535AB4" transform="matrix(1.00001 0 0 1 265.834 246.533)"/><path d="M123.965 61.7093C121.351 59.2535 117.825 58.0157 114.24 58.0157L102.403 58.0157C97.5991 58.0157 93.8074 60 91.0372 63.9686 88.267 60 84.4658 58.0157 79.6328 58.0157L67.5109 58.0157C63.4932 58.0157 60.0846 59.5088 57.3046 62.4754 54.8684 65.0884 53.6307 68.6051 53.6307 72.181L53.6307 117.721 53.6406 117.721 53.6504 117.721C53.7879 121.738 57.0787 124.951 61.1259 124.951 72.796 124.951 84.4658 124.951 96.1356 124.961 96.1356 121.11 94.5248 117.298 91.7744 114.617 86.0671 109.067 77.0099 110.54 69.7013 110.54 68.8074 110.54 68.0906 109.813 68.0906 108.93L68.0906 75.5892C68.6112 71.3854 71.2436 69.2927 75.9591 69.2927 80.6639 69.2927 83.2772 71.3854 83.8074 75.5892L83.8074 102.574C86.4601 102.574 88.9547 101.837 91.0766 100.56 95.1928 98.0844 97.9433 93.5854 97.9433 88.4381L97.9433 75.5892C98.5229 71.3854 101.204 69.2927 105.969 69.2927 110.753 69.2927 113.434 71.3854 113.994 75.5892L113.994 102.574C121.961 102.574 128.414 96.1098 128.414 88.153L128.414 71.8762C128.405 67.8782 126.922 64.4892 123.965 61.7093Z" fill="#8E89D0" transform="matrix(1.00001 0 0 1 265.834 246.533)"/><path d="M535.772 131.381 535.772 183.275 527.26 183.275 527.26 160.576 502.844 160.576 502.844 183.275 494.332 183.275 494.332 131.381 502.844 131.381 502.844 153.632 527.26 153.632 527.26 131.381 535.772 131.381ZM578.048 183.275 566.102 162.517 559.606 162.517 559.606 183.275 551.094 183.275 551.094 131.381 569.014 131.381C572.995 131.381 576.356 132.078 579.094 133.471 581.881 134.865 583.947 136.732 585.291 139.071 586.685 141.411 587.382 144.025 587.382 146.911 587.382 150.297 586.386 153.382 584.395 156.17 582.454 158.908 579.442 160.775 575.36 161.77L588.203 183.275 578.048 183.275ZM559.606 155.722 569.014 155.722C572.199 155.722 574.589 154.926 576.182 153.333 577.824 151.74 578.646 149.6 578.646 146.911 578.646 144.223 577.849 142.133 576.256 140.639 574.663 139.097 572.249 138.325 569.014 138.325L559.606 138.325 559.606 155.722ZM657.043 131.381 657.043 183.275 648.53 183.275 648.53 147.733 632.701 183.275 626.802 183.275 610.898 147.733 610.898 183.275 602.386 183.275 602.386 131.381 611.57 131.381 629.789 172.074 647.933 131.381 657.043 131.381ZM689.445 183.797C685.963 183.797 682.827 183.2 680.037 182.005 677.248 180.761 675.058 179.018 673.465 176.778 671.872 174.538 671.076 171.925 671.076 168.938L680.186 168.938C680.383 171.178 681.258 173.02 682.799 174.464 684.395 175.908 686.607 176.629 689.445 176.629 692.384 176.629 694.671 175.932 696.314 174.538 697.957 173.095 698.778 171.253 698.778 169.013 698.778 167.271 698.255 165.852 697.21 164.757 696.212 163.662 694.943 162.816 693.402 162.218 691.909 161.621 689.818 160.974 687.13 160.277 683.743 159.381 680.98 158.485 678.842 157.589 676.751 156.643 674.959 155.2 673.465 153.258 671.972 151.317 671.225 148.729 671.225 145.493 671.225 142.506 671.972 139.893 673.465 137.653 674.959 135.413 677.049 133.695 679.738 132.501 682.426 131.306 685.535 130.709 689.071 130.709 694.101 130.709 698.208 131.978 701.392 134.517 704.629 137.006 706.421 140.441 706.768 144.821L697.359 144.821C697.21 142.929 696.314 141.311 694.671 139.967 693.029 138.623 690.863 137.951 688.175 137.951 685.739 137.951 683.743 138.574 682.202 139.818 680.661 141.062 679.887 142.854 679.887 145.194 679.887 146.787 680.362 148.106 681.306 149.152 682.304 150.147 683.546 150.944 685.039 151.541 686.533 152.138 688.576 152.785 691.162 153.482 694.597 154.428 697.387 155.374 699.525 156.32 701.717 157.265 703.557 158.734 705.05 160.725 706.591 162.666 707.365 165.28 707.365 168.565 707.365 171.204 706.645 173.692 705.2 176.032 703.808 178.372 701.738 180.263 699.002 181.706 696.314 183.1 693.131 183.797 689.445 183.797Z" fill="#8E89D0" transform="matrix(1.00001 0 0 1 265.834 246.533)"/></g></g></g></g></svg>