<svg width="105" height="29" viewBox="0 0 105 29" fill="none" xmlns="http://www.w3.org/2000/svg">
<path d="M22.1231 19.4018C21.8438 19.4018 21.5804 19.5291 21.4082 19.7477C19.4618 22.202 16.4546 23.778 13.0798 23.7867C7.19717 23.7794 2.4317 19.0096 2.4317 13.1255C2.4317 7.24282 7.19572 2.47301 13.0769 2.46433C16.3388 2.47156 19.2563 3.94187 21.2056 6.25586C21.3793 6.46136 21.634 6.58003 21.9046 6.58003C22.686 6.58003 23.1072 5.66687 22.6035 5.07064C20.3228 2.36592 16.9119 0.642363 13.1001 0.626444V0.625C13.0929 0.625 13.0856 0.625 13.0769 0.625C13.0668 0.625 13.0567 0.625 13.0451 0.625V0.626444C6.1668 0.655387 0.599609 6.23995 0.599609 13.124C0.599609 20.0081 6.1668 25.5927 13.0451 25.6216V25.6231C13.0567 25.6231 13.0668 25.6231 13.0784 25.6231C13.0856 25.6231 13.0914 25.6231 13.0987 25.6231V25.6216C17.0421 25.6043 20.5544 23.7621 22.8336 20.8938C23.3141 20.2918 22.8944 19.4018 22.1231 19.4018Z" fill="#535AB4"/>
<path d="M49.0052 16.6802H51.8764V18.0666H47.2571V9.35331H49.0038V16.6802H49.0052Z" fill="#8E89D0"/>
<path d="M54.2611 17.7348C53.7286 17.4396 53.3103 17.0213 53.0064 16.4801C52.7025 15.9389 52.5506 15.3151 52.5506 14.6075C52.5506 13.8998 52.7069 13.2761 53.018 12.7349C53.3306 12.1936 53.756 11.7769 54.2973 11.4802C54.8385 11.185 55.442 11.0374 56.1077 11.0374C56.7734 11.0374 57.3768 11.185 57.9181 11.4802C58.4593 11.7754 58.8862 12.1936 59.1973 12.7349C59.5099 13.2761 59.6648 13.8998 59.6648 14.6075C59.6648 15.3151 59.5041 15.9403 59.1843 16.4801C58.863 17.0213 58.4303 17.4396 57.8862 17.7348C57.3406 18.03 56.7314 18.1776 56.057 18.1776C55.3928 18.1776 54.7937 18.03 54.2611 17.7348ZM56.9514 16.4237C57.2292 16.2703 57.4521 16.0387 57.6185 15.7319C57.7849 15.4237 57.8674 15.0503 57.8674 14.6089C57.8674 13.9519 57.6952 13.4454 57.3493 13.0923C57.0035 12.7392 56.5823 12.5612 56.0816 12.5612C55.5823 12.5612 55.1641 12.7378 54.8269 13.0923C54.4898 13.4469 54.3219 13.9519 54.3219 14.6089C54.3219 15.2659 54.4869 15.7724 54.8139 16.1256C55.1424 16.4801 55.5563 16.6567 56.057 16.6567C56.3739 16.6552 56.6721 16.5785 56.9514 16.4237Z" fill="#8E89D0"/>
<path d="M60.9211 12.7233C61.2004 12.1821 61.5782 11.7668 62.0572 11.4759C62.5362 11.185 63.0702 11.0388 63.6606 11.0388C64.1758 11.0388 64.6288 11.143 65.0151 11.3514C65.403 11.5598 65.7127 11.8217 65.9457 12.1387V11.1517H67.7054V18.0676H65.9457V17.0561C65.7214 17.3802 65.4102 17.648 65.0151 17.8607C64.6201 18.0734 64.1642 18.1791 63.6476 18.1791C63.0658 18.1791 62.5347 18.03 62.0557 17.7305C61.5767 17.4309 61.199 17.0083 60.9197 16.4628C60.6404 15.9172 60.5015 15.292 60.5015 14.5844C60.5029 13.8839 60.6418 13.2646 60.9211 12.7233ZM65.6953 13.5149C65.5289 13.211 65.3046 12.978 65.0209 12.8159C64.7373 12.6539 64.4334 12.5728 64.1092 12.5728C63.7851 12.5728 63.4855 12.6524 63.2105 12.8102C62.9356 12.9679 62.7127 13.1994 62.5434 13.5019C62.3726 13.8058 62.2873 14.1661 62.2873 14.5815C62.2873 14.9968 62.3726 15.3615 62.5434 15.6726C62.7142 15.9852 62.9385 16.224 63.2178 16.3904C63.4971 16.5568 63.7938 16.6393 64.1107 16.6393C64.4348 16.6393 64.7387 16.5583 65.0224 16.3962C65.3046 16.2341 65.5303 16.0011 65.6967 15.6972C65.8632 15.3933 65.9457 15.0301 65.9457 14.6046C65.9457 14.182 65.8617 13.8203 65.6953 13.5149Z" fill="#8E89D0"/>
<path d="M75.2449 11.8306C75.7529 12.3516 76.0061 13.0766 76.0061 14.0086V18.0664H74.2594V14.2459C74.2594 13.6974 74.1219 13.2748 73.847 12.9782C73.572 12.683 73.1987 12.5354 72.724 12.5354C72.2421 12.5354 71.8601 12.683 71.5808 12.9782C71.3015 13.2734 71.1625 13.696 71.1625 14.2459V18.0664H69.4158V11.1504H71.164V12.0115C71.397 11.7119 71.6951 11.4775 72.0554 11.3067C72.4172 11.136 72.8137 11.0506 73.2479 11.0506C74.0713 11.0506 74.737 11.3111 75.2449 11.8306Z" fill="#8E89D0"/>
<path d="M78.0684 11.3937C78.4562 10.715 78.983 10.1868 79.6545 9.80764C80.3245 9.42849 81.0756 9.24035 81.9077 9.24035C82.8816 9.24035 83.734 9.48927 84.4663 9.98853C85.1985 10.4878 85.7108 11.1781 86.0017 12.0609H83.9916C83.7919 11.6455 83.5111 11.3329 83.1494 11.1245C82.7876 10.9162 82.3693 10.812 81.8947 10.812C81.3867 10.812 80.9352 10.9306 80.5401 11.168C80.1451 11.4053 79.8368 11.7396 79.6169 12.1723C79.3954 12.605 79.2855 13.1129 79.2855 13.6947C79.2855 14.2692 79.3954 14.7743 79.6169 15.2113C79.8368 15.6483 80.1451 15.9855 80.5401 16.2229C80.9352 16.4602 81.3867 16.5789 81.8947 16.5789C82.3693 16.5789 82.7876 16.4732 83.1494 16.2605C83.5111 16.0478 83.7919 15.7352 83.9916 15.3169H86.0017C85.7108 16.2069 85.2 16.9001 84.4721 17.3951C83.7441 17.89 82.8889 18.1374 81.9062 18.1374C81.0741 18.1374 80.3231 17.9479 79.653 17.5702C78.983 17.191 78.4548 16.6657 78.067 15.9913C77.6791 15.3169 77.4866 14.5514 77.4866 13.6947C77.4866 12.8394 77.6806 12.0724 78.0684 11.3937Z" fill="#535AB4"/>
<path d="M91.9927 18.0651L90.0695 14.6701H89.2461V18.0651H87.4979V9.35184H90.7685C91.4428 9.35184 92.0159 9.47051 92.4906 9.70784C92.9652 9.94517 93.3212 10.265 93.5586 10.6687C93.7959 11.0725 93.9146 11.524 93.9146 12.0233C93.9146 12.5978 93.7481 13.1159 93.4153 13.5775C93.0825 14.0392 92.5875 14.3575 91.9291 14.5326L94.0144 18.0651H91.9927ZM89.2461 13.3576H90.7062C91.1809 13.3576 91.534 13.2432 91.767 13.0146C92 12.7859 92.1158 12.4676 92.1158 12.0595C92.1158 11.66 92 11.3504 91.767 11.1289C91.534 10.909 91.1794 10.7975 90.7062 10.7975H89.2461V13.3576Z" fill="#535AB4"/>
<path d="M105 9.35184V18.0651H103.252V12.3981L100.918 18.0651H99.5949L97.2476 12.3981V18.0651H95.5009V9.35184H97.4864L100.258 15.8307L103.029 9.35184H105Z" fill="#535AB4"/>
<path d="M37.5856 9.39009V18.0976H35.8389V12.4334L33.5061 18.0976H32.1834L29.8375 12.4334V18.0976H28.0908V9.39009H30.0749L32.8447 15.8646L35.6146 9.39009H37.5856Z" fill="#535AB4"/>
<path d="M45.9185 11.1858L41.6392 21.3665H39.7796L41.276 17.9222L38.5061 11.1858H40.4656L42.2499 16.0149L44.0589 11.1858H45.9185Z" fill="#535AB4"/>
<path d="M18.262 9.09039C17.8771 8.7286 17.3576 8.54626 16.8294 8.54626H15.0855C14.3779 8.54626 13.8193 8.83858 13.4112 9.42323C13.0031 8.83858 12.443 8.54626 11.731 8.54626H9.94526C9.35337 8.54626 8.85121 8.76622 8.44167 9.20326C8.08277 9.58821 7.90043 10.1063 7.90043 10.633V17.342H7.90188H7.90333C7.92359 17.9339 8.40838 18.4072 9.00461 18.4072C10.7238 18.4072 12.443 18.4072 14.1623 18.4086C14.1623 17.8413 13.9249 17.2798 13.5197 16.8847C12.6789 16.0671 11.3447 16.2842 10.268 16.2842C10.1363 16.2842 10.0306 16.1771 10.0306 16.0468V11.1352C10.1073 10.5158 10.4952 10.2076 11.1898 10.2076C11.883 10.2076 12.2679 10.5158 12.3461 11.1352V15.1105C12.7368 15.1105 13.1044 15.002 13.417 14.8139C14.0233 14.4492 14.4285 13.7864 14.4285 13.0281V11.1352C14.5139 10.5158 14.909 10.2076 15.6109 10.2076C16.3156 10.2076 16.7107 10.5158 16.7932 11.1352V15.1105C17.9668 15.1105 18.9176 14.1583 18.9176 12.9861V10.5882C18.9162 9.9992 18.6976 9.49993 18.262 9.09039Z" fill="#8E89D0"/>
<path d="M78.93 19.355V27H77.676V23.656H74.079V27H72.825V19.355H74.079V22.633H77.676V19.355H78.93ZM85.1581 27L83.3981 23.942H82.4411V27H81.1871V19.355H83.8271C84.4137 19.355 84.9087 19.4577 85.3121 19.663C85.7227 19.8683 86.0271 20.1433 86.2251 20.488C86.4304 20.8327 86.5331 21.2177 86.5331 21.643C86.5331 22.1417 86.3864 22.5963 86.0931 23.007C85.8071 23.4103 85.3634 23.6853 84.7621 23.832L86.6541 27H85.1581ZM82.4411 22.941H83.8271C84.2964 22.941 84.6484 22.8237 84.8831 22.589C85.1251 22.3543 85.2461 22.039 85.2461 21.643C85.2461 21.247 85.1287 20.939 84.8941 20.719C84.6594 20.4917 84.3037 20.378 83.8271 20.378H82.4411V22.941ZM96.7955 19.355V27H95.5415V21.764L93.2095 27H92.3405L89.9975 21.764V27H88.7435V19.355H90.0965L92.7805 25.35L95.4535 19.355H96.7955ZM101.569 27.077C101.056 27.077 100.594 26.989 100.183 26.813C99.7722 26.6297 99.4496 26.373 99.2149 26.043C98.9802 25.713 98.8629 25.328 98.8629 24.888H100.205C100.234 25.218 100.363 25.4893 100.59 25.702C100.825 25.9147 101.151 26.021 101.569 26.021C102.002 26.021 102.339 25.9183 102.581 25.713C102.823 25.5003 102.944 25.229 102.944 24.899C102.944 24.6423 102.867 24.4333 102.713 24.272C102.566 24.1107 102.379 23.986 102.152 23.898C101.932 23.81 101.624 23.7147 101.228 23.612C100.729 23.48 100.322 23.348 100.007 23.216C99.6989 23.0767 99.4349 22.864 99.2149 22.578C98.9949 22.292 98.8849 21.9107 98.8849 21.434C98.8849 20.994 98.9949 20.609 99.2149 20.279C99.4349 19.949 99.7429 19.696 100.139 19.52C100.535 19.344 100.993 19.256 101.514 19.256C102.255 19.256 102.86 19.443 103.329 19.817C103.806 20.1837 104.07 20.6897 104.121 21.335H102.735C102.713 21.0563 102.581 20.818 102.339 20.62C102.097 20.422 101.778 20.323 101.382 20.323C101.023 20.323 100.729 20.4147 100.502 20.598C100.275 20.7813 100.161 21.0453 100.161 21.39C100.161 21.6247 100.231 21.819 100.37 21.973C100.517 22.1197 100.7 22.237 100.92 22.325C101.14 22.413 101.441 22.5083 101.822 22.611C102.328 22.7503 102.739 22.8897 103.054 23.029C103.377 23.1683 103.648 23.3847 103.868 23.678C104.095 23.964 104.209 24.349 104.209 24.833C104.209 25.2217 104.103 25.5883 103.89 25.933C103.685 26.2777 103.38 26.5563 102.977 26.769C102.581 26.9743 102.112 27.077 101.569 27.077Z" fill="#8E89D0"/>
</svg>
