<svg width="32" height="32" viewBox="0 0 32 32" fill="none" xmlns="http://www.w3.org/2000/svg">
<circle opacity="0.28" cx="16" cy="16" r="16" fill="#B2A9E3"/>
<path d="M20.6667 12.6667V10.6667C20.6667 10.4899 20.5964 10.3203 20.4714 10.1953C20.3464 10.0702 20.1768 10 20 10H11.3333C10.9797 10 10.6406 10.1405 10.3905 10.3905C10.1405 10.6406 10 10.9797 10 11.3333C10 11.687 10.1405 12.0261 10.3905 12.2761C10.6406 12.5262 10.9797 12.6667 11.3333 12.6667H21.3333C21.5101 12.6667 21.6797 12.7369 21.8047 12.8619C21.9298 12.987 22 13.1565 22 13.3333V16M22 16H20C19.6464 16 19.3072 16.1405 19.0572 16.3905C18.8071 16.6406 18.6667 16.9797 18.6667 17.3333C18.6667 17.687 18.8071 18.0261 19.0572 18.2761C19.3072 18.5262 19.6464 18.6667 20 18.6667H22C22.1768 18.6667 22.3464 18.5964 22.4714 18.4714C22.5964 18.3464 22.6667 18.1768 22.6667 18V16.6667C22.6667 16.4899 22.5964 16.3203 22.4714 16.1953C22.3464 16.0702 22.1768 16 22 16Z" stroke="#B2A9E3" stroke-width="1.33333" stroke-linecap="round" stroke-linejoin="round"/>
<path d="M10 11.3334V20.6667C10 21.0203 10.1405 21.3595 10.3905 21.6095C10.6406 21.8596 10.9797 22 11.3333 22H21.3333C21.5101 22 21.6797 21.9298 21.8047 21.8048C21.9298 21.6798 22 21.5102 22 21.3334V18.6667" stroke="#B2A9E3" stroke-width="1.33333" stroke-linecap="round" stroke-linejoin="round"/>
</svg>
