<svg width="32" height="32" viewBox="0 0 32 32" fill="none" xmlns="http://www.w3.org/2000/svg">
<circle opacity="0.28" cx="16" cy="16" r="16" fill="#B2A9E3"/>
<path d="M18.6666 22V20.6667C18.6666 19.9594 18.3857 19.2811 17.8856 18.781C17.3855 18.281 16.7072 18 16 18H12C11.2927 18 10.6145 18.281 10.1144 18.781C9.61426 19.2811 9.33331 19.9594 9.33331 20.6667V22" stroke="#B2A9E3" stroke-width="1.33333" stroke-linecap="round" stroke-linejoin="round"/>
<path d="M14 15.3333C15.4727 15.3333 16.6666 14.1394 16.6666 12.6667C16.6666 11.1939 15.4727 10 14 10C12.5272 10 11.3333 11.1939 11.3333 12.6667C11.3333 14.1394 12.5272 15.3333 14 15.3333Z" stroke="#B2A9E3" stroke-width="1.33333" stroke-linecap="round" stroke-linejoin="round"/>
<path d="M20.6667 13.3334V17.3334" stroke="#B2A9E3" stroke-width="1.33333" stroke-linecap="round" stroke-linejoin="round"/>
<path d="M22.6667 15.3334H18.6667" stroke="#B2A9E3" stroke-width="1.33333" stroke-linecap="round" stroke-linejoin="round"/>
</svg>
