<svg width="18" height="18" viewBox="0 0 18 18" fill="none" xmlns="http://www.w3.org/2000/svg">
<path d="M1.5 15.75C1.5 14.7061 1.77238 13.6802 2.29022 12.7737C2.80807 11.8673 3.55346 11.1116 4.45274 10.5814C5.35203 10.0512 6.37409 9.76484 7.41794 9.75056C8.46179 9.73628 9.4913 9.99461 10.4048 10.5" stroke="#B2A9E3" stroke-width="1.25" stroke-linecap="round" stroke-linejoin="round"/>
<path d="M7.5 9.75C9.57107 9.75 11.25 8.07107 11.25 6C11.25 3.92893 9.57107 2.25 7.5 2.25C5.42893 2.25 3.75 3.92893 3.75 6C3.75 8.07107 5.42893 9.75 7.5 9.75Z" stroke="#B2A9E3" stroke-width="1.25" stroke-linecap="round" stroke-linejoin="round"/>
<path d="M12.75 12.75L16.5 16.5" stroke="#B2A9E3" stroke-width="1.25" stroke-linecap="round" stroke-linejoin="round"/>
<path d="M16.5 12.75L12.75 16.5" stroke="#B2A9E3" stroke-width="1.25" stroke-linecap="round" stroke-linejoin="round"/>
</svg>
