<svg width="32" height="32" viewBox="0 0 32 32" fill="none" xmlns="http://www.w3.org/2000/svg">
<circle opacity="0.28" cx="16" cy="16" r="16" fill="#B2A9E3"/>
<path d="M17 13.3334H15" stroke="#B2A9E3" stroke-width="1.33333" stroke-linecap="round" stroke-linejoin="round"/>
<path d="M18 9.33337L17.3333 10.6667H19.3333C19.6869 10.6667 20.0261 10.8072 20.2761 11.0572C20.5262 11.3073 20.6666 11.6464 20.6666 12V21.3334C20.6666 21.687 20.5262 22.0261 20.2761 22.2762C20.0261 22.5262 19.6869 22.6667 19.3333 22.6667H12.6666C12.313 22.6667 11.9739 22.5262 11.7238 22.2762C11.4738 22.0261 11.3333 21.687 11.3333 21.3334V12C11.3333 11.6464 11.4738 11.3073 11.7238 11.0572C11.9739 10.8072 12.313 10.6667 12.6666 10.6667H14.6666" stroke="#B2A9E3" stroke-width="1.33333" stroke-linecap="round" stroke-linejoin="round"/>
<path d="M19.266 22.6667C19.1127 21.9135 18.7038 21.2365 18.1085 20.7502C17.5133 20.2639 16.7683 19.9983 15.9997 19.9983C15.2311 19.9983 14.4861 20.2639 13.8908 20.7502C13.2956 21.2365 12.8867 21.9135 12.7333 22.6667" stroke="#B2A9E3" stroke-width="1.33333" stroke-linecap="round" stroke-linejoin="round"/>
<path d="M14 9.33337L16 13.3334" stroke="#B2A9E3" stroke-width="1.33333" stroke-linecap="round" stroke-linejoin="round"/>
<path d="M16 20C17.1046 20 18 19.1046 18 18C18 16.8954 17.1046 16 16 16C14.8954 16 14 16.8954 14 18C14 19.1046 14.8954 20 16 20Z" stroke="#B2A9E3" stroke-width="1.33333" stroke-linecap="round" stroke-linejoin="round"/>
</svg>
