<svg width="32" height="32" viewBox="0 0 32 32" fill="none" xmlns="http://www.w3.org/2000/svg">
<circle opacity="0.28" cx="16" cy="16" r="16" fill="#B2A9E3"/>
<path d="M14.6666 18H12C11.2927 18 10.6145 18.281 10.1144 18.781C9.61426 19.2811 9.33331 19.9594 9.33331 20.6667V22" stroke="#B2A9E3" stroke-width="1.33333" stroke-linecap="round" stroke-linejoin="round"/>
<g clip-path="url(#clip0_60_5762)">
<path d="M18.9974 19.0004V20.1013L19.7981 20.6018" stroke="#B2A9E3" stroke-width="1.00087" stroke-linecap="round" stroke-linejoin="round"/>
<path d="M18.9974 23.0038C20.6557 23.0038 22 21.6595 22 20.0012C22 18.3429 20.6557 16.9985 18.9974 16.9985C17.3391 16.9985 15.9948 18.3429 15.9948 20.0012C15.9948 21.6595 17.3391 23.0038 18.9974 23.0038Z" stroke="#B2A9E3" stroke-width="1.00087" stroke-linecap="round" stroke-linejoin="round"/>
</g>
<path d="M14 15.3333C15.4727 15.3333 16.6666 14.1394 16.6666 12.6667C16.6666 11.1939 15.4727 10 14 10C12.5272 10 11.3333 11.1939 11.3333 12.6667C11.3333 14.1394 12.5272 15.3333 14 15.3333Z" stroke="#B2A9E3" stroke-width="1.33333" stroke-linecap="round" stroke-linejoin="round"/>
<defs>
<clipPath id="clip0_60_5762">
<rect width="8" height="8" fill="white" transform="translate(15 16)"/>
</clipPath>
</defs>
</svg>
