<svg width="32" height="32" viewBox="0 0 32 32" fill="none" xmlns="http://www.w3.org/2000/svg">
<circle opacity="0.28" cx="16" cy="16" r="16" fill="#B2A9E3"/>
<path d="M8.81623 8.05062C8.81623 8.11607 8.81623 8.18151 8.81623 8.24894C8.83198 8.17041 8.84773 8.09187 8.86396 8.01096C9.32276 7.98853 9.32276 7.98853 9.53222 8.12995C9.60527 8.25135 9.60898 8.35609 9.57995 8.48693C9.34057 8.9618 8.81518 9.36696 8.37936 9.72057C8.22671 9.85091 8.10024 9.96432 8.10024 10.1529C8.11599 10.1398 8.13174 10.1267 8.14797 10.1132C8.42255 10.0859 8.61421 10.1685 8.85501 10.2644C8.94007 10.2973 9.02516 10.3301 9.11027 10.3628C9.15532 10.3803 9.20037 10.3977 9.24678 10.4157C9.49559 10.511 9.74666 10.602 9.99761 10.6933C10.0444 10.7104 10.0911 10.7274 10.1393 10.745C10.2869 10.7989 10.4346 10.8527 10.5823 10.9065C10.6396 10.9273 10.6968 10.9482 10.7558 10.9697C11.1057 11.097 11.4558 11.2239 11.806 11.3504C11.9257 11.3936 12.0453 11.4369 12.1649 11.4801C12.2458 11.5093 12.3266 11.5385 12.4074 11.5676C12.8837 11.7395 13.3578 11.9138 13.8282 12.0964C13.8282 11.8346 13.8282 11.5729 13.8282 11.3031C14.2016 11.2189 14.565 11.1624 14.949 11.1232C15.0857 11.1082 15.2179 11.0894 15.3526 11.0651C15.5533 11.0296 15.7546 11.008 15.9582 10.9883C16.2443 10.9602 16.5258 10.9224 16.8087 10.8766C17.2464 10.8061 17.6864 10.7476 18.1263 10.688C18.2596 10.6696 18.3926 10.6502 18.5255 10.6305C18.9506 10.5688 19.3196 10.5308 19.7466 10.6059C20.0747 10.6529 20.324 10.579 20.6301 10.4826C20.6769 10.4686 20.7237 10.4546 20.772 10.4402C21.0565 10.3541 21.333 10.257 21.6086 10.1529C22.0912 9.97918 22.3444 9.99165 22.8496 10.1132C22.8511 11.3122 22.8521 12.5113 22.8526 13.7103C22.8526 13.7549 22.8527 13.7995 22.8527 13.8455C22.8538 16.3961 22.8486 18.9465 22.8258 21.497C22.8255 21.5289 22.8252 21.5609 22.8249 21.5938C22.8179 22.3813 22.8103 23.1687 22.8019 23.9562C22.2492 24.0505 21.7514 23.9566 21.2092 23.8594C21.0116 23.8245 20.8134 23.7926 20.6152 23.7604C20.086 23.6713 19.5586 23.5755 19.031 23.4802C19.0074 19.6319 19.0074 19.6319 18.9833 15.7059C18.6525 15.6143 18.3217 15.5227 17.9809 15.4283C17.7571 15.3646 17.5333 15.301 17.3097 15.2367C16.6915 15.0591 16.0721 14.885 15.4511 14.7143C15.2621 14.6619 15.073 14.6096 14.8783 14.5556C14.8783 15.4195 14.8783 16.2834 14.8783 17.1735C15.7343 17.1475 15.7343 17.1475 16.5904 17.1213C16.6987 17.118 16.807 17.1148 16.9153 17.1115C16.9703 17.1098 17.0254 17.1081 17.0821 17.1064C17.4137 17.0965 17.7446 17.092 18.0764 17.0942C18.0764 17.1073 18.0764 17.1204 18.0764 17.1339C18.018 17.1404 17.9596 17.147 17.8995 17.1538C17.6777 17.1788 17.4559 17.2039 17.2341 17.229C17.1391 17.2397 17.0441 17.2505 16.9491 17.2612C16.393 17.3239 15.8372 17.3875 15.282 17.455C15.2232 17.462 15.2232 17.462 15.1632 17.4693C15.1288 17.4734 15.0944 17.4776 15.0589 17.4819C14.9737 17.4908 14.9737 17.4908 14.8783 17.4908C14.8783 19.1794 14.8783 20.8679 14.8783 22.6076C14.7252 22.65 14.6124 22.6525 14.4517 22.6522C14.402 22.6523 14.3524 22.6524 14.3012 22.6525C14.1816 22.648 14.0859 22.6333 13.9714 22.6076C13.9229 21.4549 13.9194 20.3026 13.9206 19.1493C13.9207 19.1114 13.9207 19.0735 13.9208 19.0345C13.9213 18.5596 13.9223 18.0847 13.9236 17.6098C13.8867 17.6163 13.8497 17.6228 13.8116 17.6294C13.6245 17.6591 13.4457 17.6519 13.2554 17.6495C13.3814 17.8066 13.5074 17.9636 13.6372 18.1255C13.6215 18.1517 13.6057 18.1778 13.5895 18.2048C13.3847 18.1132 13.18 18.0216 12.969 17.9272C12.9414 18.1176 12.9414 18.1176 12.9147 18.308C12.8936 18.4466 12.8728 18.523 12.778 18.6411C12.7459 18.5519 12.7142 18.4627 12.6826 18.3734C12.6649 18.3237 12.6471 18.274 12.6289 18.2228C12.5871 18.0858 12.5871 18.0858 12.5871 17.9272C12.5547 17.9401 12.5224 17.953 12.489 17.9664C12.1928 18.0819 11.9009 18.1744 11.5847 18.2445C11.7693 18.0479 11.9756 17.8889 12.2053 17.7288C12.1336 17.5669 12.0194 17.5125 11.8443 17.4264C11.5894 17.3002 11.5894 17.3002 11.537 17.2132C11.6175 17.2121 11.6981 17.2113 11.7786 17.2107C11.8235 17.2102 11.8684 17.2098 11.9146 17.2093C12.0779 17.2136 12.2349 17.2316 12.3962 17.2529C12.3721 17.2051 12.3479 17.1573 12.3231 17.1081C12.2918 17.0456 12.2604 16.9832 12.2291 16.9207C12.2132 16.8892 12.1972 16.8577 12.1808 16.8252C12.1582 16.78 12.1582 16.78 12.1351 16.7338C12.1211 16.706 12.1071 16.6781 12.0927 16.6495C12.0621 16.5785 12.0621 16.5785 12.0621 16.4992C12.1575 16.4992 12.1575 16.4992 12.259 16.581C12.2794 16.5988 12.2999 16.6166 12.321 16.6349C12.4656 16.7554 12.623 16.8643 12.778 16.9752C12.9533 16.9166 13.0363 16.8373 13.148 16.7124C13.1919 16.6638 13.1919 16.6638 13.2367 16.6142C13.2586 16.5893 13.2805 16.5645 13.3031 16.5389C13.3806 16.6676 13.3292 16.8022 13.3061 16.9405C13.3013 16.9704 13.2966 17.0003 13.2916 17.0311C13.2798 17.1051 13.2676 17.179 13.2554 17.2529C13.4601 17.2529 13.6649 17.2529 13.8759 17.2529C13.8601 16.245 13.8444 15.2371 13.8282 14.1987C13.6706 14.1725 13.5131 14.1463 13.3508 14.1193C13.2233 14.0836 13.0998 14.0464 12.9749 14.0053C12.5375 13.8667 12.0947 13.7431 11.6504 13.621C11.0057 13.4438 10.3625 13.2635 9.72017 13.0806C9.10504 12.9055 8.4895 12.7316 7.87191 12.5625C7.49563 12.4592 7.1269 12.3475 6.76372 12.2154C6.77948 12.1238 6.79523 12.0322 6.81146 11.9378C6.77995 11.9288 6.74845 11.9198 6.71599 11.9105C6.41933 11.8026 6.12655 11.6825 6 11.4221C6.0234 11.2934 6.07943 11.1834 6.1432 11.0651C6.16289 11.0193 6.18258 10.9735 6.20286 10.9263C6.2864 10.8272 6.2864 10.8272 6.45868 10.8011C6.51209 10.7966 6.5655 10.7921 6.62053 10.7875C6.62409 10.7438 6.62766 10.7001 6.63134 10.655C6.70987 9.851 7.05907 8.9146 7.81384 8.36794C8.46796 7.96793 8.46796 7.96793 8.81623 8.05062Z" fill="#B2A9E3"/>
<path d="M9.07877 8.44808C9.07877 8.51353 9.07877 8.57897 9.07877 8.6464C9.09452 8.56787 9.11028 8.48933 9.12651 8.40842C9.5853 8.38599 9.5853 8.38599 9.79476 8.52741C9.86781 8.64881 9.87152 8.75355 9.8425 8.88439C9.60312 9.35926 9.07773 9.76442 8.64191 10.118C8.48925 10.2484 8.36278 10.3618 8.36278 10.5503C8.37853 10.5372 8.39429 10.5241 8.41051 10.5106C8.68509 10.4833 8.87675 10.566 9.11756 10.6619C9.20261 10.6947 9.2877 10.7275 9.37281 10.7603C9.41786 10.7777 9.46291 10.7952 9.50932 10.8132C9.75813 10.9084 10.0092 10.9994 10.2602 11.0907C10.3069 11.1078 10.3537 11.1249 10.4018 11.1425C10.5495 11.1964 10.6972 11.2502 10.8449 11.3039C10.9024 11.3249 10.96 11.3459 11.0193 11.3675C11.3638 11.4929 11.7085 11.6178 12.0535 11.7423C12.8788 12.0402 13.7033 12.3389 14.5203 12.6525C14.5203 12.43 14.5203 12.2075 14.5203 11.9782C14.5932 11.9686 14.666 11.959 14.7411 11.9491C14.8425 11.9357 14.9439 11.9223 15.0454 11.9088C15.1255 11.8983 15.1255 11.8983 15.2072 11.8875C15.4827 11.851 15.758 11.8136 16.0328 11.7737C16.0835 11.7665 16.1341 11.7592 16.1863 11.7517C16.2824 11.7378 16.3785 11.7237 16.4745 11.7093C16.7504 11.6697 16.8179 11.7026 17.0979 11.7093C16.9171 11.8009 16.9132 11.7723 16.7076 11.7987C16.6693 11.8037 16.631 11.8088 16.5916 11.8141C16.5104 11.8247 16.4291 11.8353 16.3478 11.8457C16.2259 11.8615 16.1042 11.8777 15.9824 11.894C15.5104 11.9562 15.0454 11.9979 14.568 12.0179C14.568 12.2404 14.568 12.463 14.568 12.6922C14.7098 12.7315 14.8516 12.7707 14.9976 12.8112C15.0005 12.7773 15.0034 12.7434 15.0064 12.7085C15.0104 12.6647 15.0144 12.6208 15.0185 12.5757C15.0243 12.5101 15.0243 12.5101 15.0303 12.4432C15.0454 12.3352 14.8544 12.9355 14.9022 12.8958C15.0453 12.8775 15.0636 13.0497 15.2072 13.0346C16.5916 13.4114 15.116 13.1695 15.5445 13.1148C16.8529 13.5114 16.2898 13.5764 16.8529 13.5114C16.9112 13.5046 17.9447 13.9977 18.0048 13.9907C18.0854 13.9815 16.7707 13.5208 16.8529 13.5114C14.9158 15.1422 16.781 13.5197 16.8529 13.5114C16.9767 13.5 19.1026 14.5168 19.2936 14.5168C19.2936 15.9304 19.2936 14.6469 19.2936 16.1034C18.5782 15.9205 18.5782 15.9205 18.255 15.8307C18.219 15.8207 18.183 15.8108 18.1459 15.8005C18.0709 15.7797 17.9959 15.7589 17.9209 15.7381C17.8078 15.7067 17.6946 15.6754 17.5813 15.6441C17.2321 15.5474 16.8841 15.4491 16.5387 15.3432C16.385 15.2965 16.2301 15.2536 16.0746 15.2109C15.992 15.1882 15.992 15.1882 15.9077 15.1651C15.8437 15.1475 15.7796 15.1299 15.7136 15.1118C15.5246 15.0594 15.3356 15.0071 15.1408 14.9531C15.1408 15.817 15.1408 16.6809 15.1408 17.571C15.9969 17.545 15.9969 17.545 16.8529 17.5188C16.9612 17.5155 17.0695 17.5123 17.1779 17.509C17.2329 17.5073 17.2879 17.5056 17.3446 17.5038C17.6762 17.494 18.0071 17.4895 18.3389 17.4917C18.3389 17.5047 18.3389 17.5178 18.3389 17.5313C18.2805 17.5379 18.2222 17.5445 18.162 17.5513C17.9402 17.5763 17.7184 17.6014 17.4967 17.6265C17.4016 17.6372 17.3066 17.6479 17.2116 17.6586C16.6556 17.7214 16.0997 17.785 15.5445 17.8524C15.4857 17.8595 15.4857 17.8595 15.4258 17.8667C15.3914 17.8709 15.3569 17.8751 15.3215 17.8794C15.2363 17.8883 15.2363 17.8883 15.1408 17.8883C15.1408 19.5768 15.1408 21.2654 15.1408 23.0051C14.9877 23.0475 14.875 23.05 14.7142 23.0497C14.6646 23.0498 14.6149 23.0499 14.5637 23.05C14.4441 23.0455 14.3484 23.0308 14.2339 23.0051C14.1855 21.8524 14.1819 20.7 14.1832 19.5468C14.1832 19.5089 14.1833 19.471 14.1833 19.4319C14.1839 18.957 14.1848 18.4822 14.1862 18.0073C14.1492 18.0138 14.1123 18.0202 14.0742 18.0269C13.887 18.0565 13.7082 18.0493 13.5179 18.047C13.6439 18.204 13.7699 18.3611 13.8998 18.5229C13.884 18.5491 13.8683 18.5753 13.852 18.6023C13.6473 18.5106 13.4425 18.419 13.2315 18.3246C13.204 18.515 13.204 18.515 13.1773 18.7055C13.1562 18.8441 13.1353 18.9205 13.0406 19.0386C13.0085 18.9494 12.9767 18.8601 12.9451 18.7708C12.9274 18.7211 12.9097 18.6714 12.8914 18.6202C12.8497 18.4833 12.8497 18.4833 12.8497 18.3246C12.8173 18.3375 12.7849 18.3505 12.7516 18.3638C12.4554 18.4794 12.1634 18.5718 11.8473 18.6419C12.0319 18.4454 12.2381 18.2863 12.4678 18.1263C12.3961 17.9643 12.2819 17.91 12.1068 17.8238C11.8519 17.6977 11.8519 17.6977 11.7995 17.6106C11.8801 17.6096 11.9606 17.6088 12.0412 17.6082C12.086 17.6077 12.1309 17.6072 12.1771 17.6068C12.3404 17.6111 12.4975 17.6291 12.6587 17.6503C12.6346 17.6026 12.6105 17.5548 12.5856 17.5056C12.5543 17.4431 12.523 17.3806 12.4917 17.3181C12.4757 17.2866 12.4598 17.2551 12.4434 17.2227C12.4208 17.1774 12.4208 17.1774 12.3977 17.1313C12.3837 17.1034 12.3697 17.0756 12.3553 17.0469C12.3246 16.976 12.3246 16.976 12.3246 16.8967C12.4201 16.8967 12.4201 16.8967 12.5215 16.9785C12.542 16.9963 12.5625 17.0141 12.5836 17.0324C12.7281 17.1528 12.8856 17.2617 13.0406 17.3727C13.2158 17.314 13.2989 17.2348 13.4105 17.1099C13.4544 17.0613 13.4544 17.0613 13.4993 17.0116C13.5212 16.9868 13.5431 16.9619 13.5656 16.9363C13.6431 17.0651 13.5918 17.1997 13.5686 17.338C13.5639 17.3679 13.5591 17.3978 13.5542 17.4286C13.5424 17.5025 13.5302 17.5764 13.5179 17.6503C13.7227 17.6503 13.9275 17.6503 14.1384 17.6503C14.1227 16.6424 14.1069 15.6345 14.0907 14.5961C13.9332 14.5699 13.7757 14.5438 13.6134 14.5168C13.4859 14.481 13.3623 14.4438 13.2375 14.4028C12.8001 14.2642 12.3573 14.1406 11.9129 14.0185C11.2683 13.8412 10.625 13.661 9.98271 13.4781C9.36758 13.3029 8.75204 13.1291 8.13446 12.96C7.75818 12.8567 7.38945 12.7449 7.02627 12.6129C7.04202 12.5213 7.05777 12.4296 7.074 12.3352C7.0425 12.3262 7.01099 12.3172 6.97853 12.308C6.68188 12.2001 6.38909 12.08 6.26254 11.8196C6.28594 11.6909 6.34197 11.5808 6.40574 11.4626C6.42543 11.4168 6.44512 11.371 6.46541 11.3238C6.54894 11.2246 6.54894 11.2246 6.72122 11.1986C6.77463 11.1941 6.82804 11.1896 6.88307 11.185C6.88664 11.1412 6.89021 11.0975 6.89388 11.0525C6.97241 10.2485 7.32161 9.31206 8.07639 8.7654C8.7305 8.36539 8.7305 8.36539 9.07877 8.44808Z" fill="#58758D"/>
<path d="M8.10025 14.2383C8.16435 14.348 8.22782 14.458 8.29118 14.568C8.3185 14.6147 8.3185 14.6147 8.34638 14.6624C8.37222 14.7075 8.37222 14.7075 8.39858 14.7535C8.41458 14.7811 8.43058 14.8087 8.44706 14.8372C8.48212 14.9126 8.48212 14.9126 8.48212 15.0316C8.57663 15.0185 8.67114 15.0054 8.76851 14.9919C8.88841 15.0957 8.91126 15.1452 8.92364 15.2919C8.91171 15.4282 8.91171 15.4282 8.86398 15.5472C8.92875 15.6675 8.92875 15.6675 9.02209 15.7926C9.05243 15.8357 9.08276 15.8789 9.11401 15.9233C9.15564 15.9727 9.15564 15.9727 9.19811 16.0232C9.69566 16.0232 10.2464 15.7487 10.688 15.5783C10.7733 15.5472 10.7733 15.5472 10.9165 15.5076C10.9443 15.4262 10.9443 15.4262 10.9553 15.3315C10.9775 15.2338 10.9775 15.2338 11.0119 15.1506C11.1492 15.0911 11.1492 15.0911 11.2983 15.0712C11.3358 15.0631 11.3732 15.0549 11.4117 15.0465C11.4373 15.0415 11.4629 15.0366 11.4893 15.0316C11.4893 15.097 11.4893 15.1625 11.4893 15.2299C11.51 15.2103 11.5306 15.1906 11.5519 15.1704C11.6325 15.1109 11.6325 15.1109 11.7757 15.1109C11.7757 15.1894 11.7757 15.268 11.7757 15.3489C11.8072 15.3489 11.8387 15.3489 11.8711 15.3489C11.8592 15.4912 11.837 15.5373 11.7056 15.6332C11.6578 15.6596 11.6101 15.6861 11.5609 15.7133C11.3763 15.8066 11.3763 15.8066 11.2506 15.9439C11.3609 15.9439 11.4711 15.9439 11.5847 15.9439C11.6084 16.042 11.6084 16.042 11.6325 16.1422C11.532 16.1299 11.4316 16.1175 11.3312 16.105C11.2752 16.0981 11.2193 16.0912 11.1617 16.0841C11.0119 16.0629 11.0119 16.0629 10.8688 16.0232C10.853 16.0625 10.8372 16.1017 10.821 16.1422C10.6819 16.1843 10.6819 16.1843 10.5048 16.2215C10.2631 16.2729 10.0451 16.3347 9.81863 16.4198C9.84202 16.4479 9.8654 16.4759 9.8895 16.5047C9.976 16.6088 10.062 16.7132 10.1476 16.8178C10.1847 16.8631 10.2221 16.9081 10.2597 16.9531C10.3137 17.0178 10.3668 17.0829 10.42 17.1481C10.4522 17.1871 10.4844 17.2262 10.5177 17.2664C10.5824 17.3718 10.5824 17.3718 10.5686 17.4651C10.5574 17.4867 10.5462 17.5082 10.5346 17.5305C10.5031 17.5305 10.4716 17.5305 10.4392 17.5305C10.431 17.5713 10.4229 17.6122 10.4145 17.6543C10.3307 18.0669 10.2256 18.4728 10.105 18.8791C10.0735 18.8791 10.042 18.8791 10.0096 18.8791C9.99381 18.9576 9.97806 19.0361 9.96183 19.1171C9.89095 19.0974 9.89095 19.0974 9.81863 19.0774C9.81863 19.0512 9.81863 19.025 9.81863 18.9981C9.77138 19.0177 9.77138 19.0177 9.72317 19.0377C9.47353 19.0535 9.23085 19.0629 9.00718 18.9584C8.91171 18.8791 8.91171 18.8791 8.90276 18.7774C8.91171 18.6807 8.91171 18.6807 8.95944 18.6411C9.19729 18.6566 9.37234 18.7029 9.57997 18.7997C9.56969 18.775 9.55942 18.7503 9.54883 18.7249C9.52427 18.5422 9.5884 18.3873 9.64858 18.2122C9.66018 18.1771 9.67178 18.1421 9.68373 18.106C9.71232 18.0198 9.74139 17.9337 9.7709 17.8478C9.74444 17.8592 9.71798 17.8707 9.69072 17.8825C9.65614 17.8972 9.62156 17.9119 9.58593 17.9271C9.5516 17.9418 9.51727 17.9566 9.48189 17.9717C9.38904 18.0064 9.38904 18.0064 9.29357 18.0064C9.28038 18.035 9.26719 18.0636 9.2536 18.093C9.1999 18.2012 9.13961 18.3029 9.07393 18.4063C9.05054 18.4433 9.02716 18.4802 9.00307 18.5183C8.97883 18.5563 8.95459 18.5944 8.92961 18.6336C8.905 18.6725 8.88039 18.7113 8.85503 18.7513C8.79447 18.8468 8.73381 18.9423 8.67305 19.0377C8.62579 19.0246 8.57854 19.0115 8.52985 18.9981C8.5141 19.0635 8.49834 19.1289 8.48212 19.1964C8.41911 19.1833 8.3561 19.1702 8.29118 19.1567C8.29118 19.1305 8.29118 19.1044 8.29118 19.0774C8.26294 19.0759 8.2347 19.0744 8.2056 19.0729C7.97769 19.0571 7.80817 19.04 7.62293 18.9187C7.52746 18.7997 7.52746 18.7997 7.54536 18.6931C7.55521 18.6629 7.56505 18.6326 7.57519 18.6014C7.70233 18.5859 7.78485 18.5853 7.89347 18.6456C7.96427 18.6952 8.03245 18.7473 8.10025 18.7997C8.12111 18.763 8.12111 18.763 8.14239 18.7255C8.2665 18.5124 8.40077 18.3196 8.57105 18.1296C8.64279 18.0192 8.65343 17.9723 8.62531 17.8478C8.54857 17.7374 8.45692 17.6383 8.36278 17.5379C8.33774 17.5104 8.3127 17.4829 8.2869 17.4546C8.22519 17.387 8.16279 17.3199 8.10025 17.2528C8.07257 17.2873 8.07257 17.2873 8.04432 17.3225C7.99294 17.3866 7.94148 17.4506 7.88993 17.5145C7.84447 17.5714 7.79953 17.6287 7.75568 17.6865C7.71375 17.7415 7.66864 17.7949 7.62293 17.8478C7.59142 17.8478 7.55992 17.8478 7.52746 17.8478C7.51171 18.031 7.49596 18.2143 7.47973 18.4031C7.38522 18.4227 7.38522 18.4227 7.2888 18.4427C7.2888 18.3249 7.2888 18.2071 7.2888 18.0858C7.22018 18.1238 7.15157 18.1618 7.08295 18.1998C6.69811 18.413 6.69811 18.413 6.47734 18.4031C6.47734 18.3638 6.47734 18.3245 6.47734 18.2841C6.41433 18.271 6.35133 18.2579 6.28641 18.2444C6.28641 18.1921 6.28641 18.1397 6.28641 18.0858C6.33367 18.0661 6.33367 18.0661 6.38188 18.0461C6.33462 18.0199 6.28737 17.9937 6.23868 17.9668C6.27746 17.8899 6.27746 17.8899 6.33414 17.8081C6.40503 17.7885 6.40503 17.7885 6.47734 17.7684C6.46159 17.7292 6.44584 17.6899 6.42961 17.6495C6.46819 17.6494 6.50677 17.6492 6.54652 17.6491C6.83575 17.6493 6.83575 17.6493 7.09022 17.5542C7.15955 17.4818 7.15955 17.4818 7.24107 17.3718C7.27257 17.3718 7.30407 17.3718 7.33653 17.3718C7.33653 17.3456 7.33653 17.3194 7.33653 17.2925C7.41503 17.231 7.41503 17.231 7.51851 17.1611C7.72915 17.0137 7.72915 17.0137 7.86159 16.8165C7.82936 16.7132 7.82936 16.7132 7.76612 16.6182C7.74901 16.5655 7.73262 16.5127 7.71839 16.4595C7.68689 16.4595 7.65538 16.4595 7.62293 16.4595C7.62293 16.5511 7.62293 16.6428 7.62293 16.7372C7.60717 16.7372 7.59142 16.7372 7.57519 16.7372C7.57341 16.7075 7.57163 16.6779 7.56979 16.6473C7.56508 16.5887 7.56508 16.5887 7.56028 16.5289C7.55751 16.4903 7.55474 16.4516 7.55189 16.4118C7.52409 16.2856 7.49143 16.2337 7.38426 16.1422C7.26451 16.123 7.26451 16.123 7.13665 16.1323C7.07213 16.1344 7.07213 16.1344 7.00632 16.1366C6.97352 16.1385 6.94073 16.1403 6.90694 16.1422C6.89976 16.1174 6.89258 16.0926 6.88519 16.0671C6.8516 15.9531 6.81663 15.8394 6.78164 15.7257C6.76475 15.6673 6.76475 15.6673 6.74752 15.6076C6.66515 15.3444 6.55172 15.156 6.33414 14.9522C6.38275 14.9339 6.43136 14.9156 6.48144 14.8968C6.90922 14.7336 7.3238 14.5582 7.73198 14.3633C7.76632 14.347 7.80066 14.3307 7.83605 14.3139C7.86638 14.2993 7.89671 14.2847 7.92796 14.2697C8.00479 14.2383 8.00479 14.2383 8.10025 14.2383Z" fill="#56728A"/>
<path d="M13.8759 14.2383C14.0019 14.2775 14.1279 14.3168 14.2578 14.3573C14.2814 14.6911 14.2814 14.6911 14.3055 15.0316C14.3212 14.8221 14.337 14.6127 14.3532 14.3969C14.5895 14.4362 14.5895 14.4362 14.8305 14.4763C14.8305 15.3663 14.8305 16.2564 14.8305 17.1735C15.7023 17.1475 15.7023 17.1475 16.5741 17.1213C16.6843 17.118 16.7946 17.1147 16.9049 17.1115C16.989 17.1089 16.989 17.1089 17.0747 17.1063C17.4088 17.0966 17.7421 17.0919 18.0764 17.0941C18.0764 17.1072 18.0764 17.1203 18.0764 17.1338C18.018 17.1404 17.9596 17.147 17.8995 17.1538C17.6777 17.1788 17.4559 17.2039 17.2341 17.229C17.1391 17.2397 17.0441 17.2504 16.9491 17.2611C16.393 17.3239 15.8372 17.3875 15.2819 17.4549C15.2428 17.4596 15.2036 17.4643 15.1632 17.4692C15.1288 17.4734 15.0944 17.4776 15.0589 17.4819C14.9737 17.4908 14.9737 17.4908 14.8783 17.4908C14.8783 19.1793 14.8783 20.8679 14.8783 22.6076C14.7252 22.65 14.6124 22.6525 14.4517 22.6522C14.402 22.6523 14.3524 22.6524 14.3012 22.6525C14.1816 22.6479 14.0859 22.6333 13.9714 22.6076C13.9229 21.4549 13.9194 20.3025 13.9206 19.1493C13.9207 19.0924 13.9207 19.0924 13.9208 19.0344C13.9213 18.5595 13.9223 18.0847 13.9236 17.6098C13.8867 17.6163 13.8497 17.6227 13.8116 17.6294C13.6245 17.659 13.4457 17.6518 13.2554 17.6495C13.3814 17.8065 13.5074 17.9636 13.6372 18.1254C13.6215 18.1516 13.6057 18.1778 13.5895 18.2048C13.2823 18.0673 13.2823 18.0673 12.969 17.9271C12.9414 18.1175 12.9414 18.1175 12.9147 18.308C12.8936 18.4465 12.8728 18.523 12.778 18.6411C12.7459 18.5519 12.7142 18.4626 12.6826 18.3733C12.6649 18.3236 12.6471 18.2739 12.6289 18.2227C12.5871 18.0858 12.5871 18.0858 12.5871 17.9271C12.5547 17.94 12.5224 17.953 12.489 17.9663C12.1928 18.0819 11.9009 18.1743 11.5847 18.2444C11.7693 18.0479 11.9756 17.8888 12.2052 17.7288C12.1336 17.5668 12.0194 17.5125 11.8443 17.4263C11.5894 17.3002 11.5894 17.3002 11.537 17.2131C11.6175 17.2121 11.6981 17.2113 11.7786 17.2107C11.8235 17.2102 11.8683 17.2097 11.9146 17.2093C12.0779 17.2136 12.2349 17.2316 12.3962 17.2528C12.3721 17.205 12.3479 17.1573 12.3231 17.1081C12.2918 17.0456 12.2604 16.9831 12.2291 16.9206C12.2132 16.8891 12.1972 16.8576 12.1808 16.8252C12.1657 16.795 12.1507 16.7648 12.1351 16.7338C12.1211 16.7059 12.1071 16.6781 12.0927 16.6494C12.062 16.5785 12.062 16.5785 12.062 16.4992C12.1575 16.4992 12.1575 16.4992 12.2589 16.581C12.2794 16.5988 12.2999 16.6166 12.321 16.6349C12.4656 16.7553 12.623 16.8642 12.778 16.9752C12.9532 16.9165 13.0363 16.8373 13.148 16.7124C13.1773 16.68 13.2065 16.6475 13.2367 16.6141C13.2586 16.5893 13.2805 16.5644 13.3031 16.5388C13.3806 16.6676 13.3292 16.8021 13.3061 16.9404C13.3013 16.9704 13.2965 17.0003 13.2916 17.0311C13.2798 17.105 13.2676 17.1789 13.2554 17.2528C13.4601 17.2528 13.6649 17.2528 13.8759 17.2528C13.8759 16.258 13.8759 15.2632 13.8759 14.2383Z" fill="#B53F31"/>
<path d="M22.5155 10.0735C22.6258 10.0866 22.7361 10.0997 22.8497 10.1132C22.8511 11.3122 22.8521 12.5112 22.8526 13.7103C22.8527 13.7549 22.8527 13.7995 22.8527 13.8455C22.8539 16.396 22.8486 18.9464 22.8258 21.4969C22.8255 21.5289 22.8252 21.5608 22.8249 21.5937C22.8179 22.3812 22.8103 23.1687 22.8019 23.9562C22.4066 24.025 22.0426 24.0134 21.6563 23.9165C21.6563 23.9034 21.6563 23.8903 21.6563 23.8768C21.8139 23.8899 21.9714 23.903 22.1337 23.9165C22.1336 23.8652 22.1335 23.8138 22.1333 23.7609C22.132 23.0583 22.1312 22.3557 22.1307 21.6531C22.1307 21.6237 22.1306 21.5942 22.1306 21.5638C22.1289 19.0129 22.1419 16.462 22.1575 13.9111C22.1578 13.8644 22.1581 13.8177 22.1584 13.7696C22.1658 12.564 22.1734 11.3584 22.1814 10.1528C22.2129 10.1528 22.2444 10.1528 22.2769 10.1528C22.2926 10.3492 22.3084 10.5455 22.3246 10.7478C22.3295 10.666 22.3344 10.5842 22.3395 10.4999C22.3505 10.3176 22.3641 10.2097 22.5155 10.0735Z" fill="#252624"/>
<path d="M8.81622 8.05062C8.81622 8.11607 8.81622 8.18151 8.81622 8.24894C8.83197 8.17041 8.84772 8.09187 8.86395 8.01096C9.32275 7.98853 9.32275 7.98853 9.53221 8.12995C9.60526 8.25135 9.60897 8.35609 9.57994 8.48693C9.35889 8.92544 8.8853 9.3088 8.48209 9.63721C8.32816 9.76303 8.19553 9.87187 8.10023 10.0339C8.10404 10.1866 8.10404 10.1866 8.19569 10.3115C8.25117 10.7648 8.01411 11.163 7.74223 11.5436C7.71593 11.5804 7.71593 11.5804 7.6891 11.618C7.57502 11.771 7.45524 11.9014 7.28877 12.0171C6.97634 12.072 6.63841 11.9124 6.38185 11.7791C6.24164 11.6775 6.24164 11.6775 6.14319 11.5808C6.09593 11.5464 6.09593 11.5464 6.04772 11.5114C5.98768 11.3991 6.00964 11.3638 6.05369 11.2486C6.08272 11.1872 6.11252 11.126 6.14319 11.0651C6.16288 11.0193 6.18257 10.9735 6.20285 10.9263C6.28639 10.8272 6.28639 10.8272 6.45867 10.8011C6.51208 10.7966 6.56549 10.7921 6.62051 10.7875C6.62408 10.7438 6.62765 10.7001 6.63133 10.655C6.70986 9.851 7.05906 8.9146 7.81383 8.36794C8.46795 7.96793 8.46795 7.96793 8.81622 8.05062Z" fill="#161816"/>
<path d="M14.8306 17.4908C14.8722 18.1201 14.8847 18.747 14.8829 19.3771C14.8829 19.471 14.8828 19.5649 14.8827 19.6588C14.8826 19.9028 14.8821 20.1468 14.8816 20.3908C14.8811 20.6411 14.8809 20.8913 14.8806 21.1416C14.8801 21.6302 14.8793 22.1189 14.8783 22.6076C14.7252 22.65 14.6124 22.6526 14.4517 22.6522C14.402 22.6523 14.3524 22.6524 14.3012 22.6525C14.1816 22.648 14.0859 22.6333 13.9714 22.6076C13.9224 21.4483 13.9194 20.2893 13.9206 19.1295C13.9207 19.0911 13.9207 19.0527 13.9208 19.0132C13.9213 18.5322 13.9223 18.0512 13.9236 17.5702C14.039 17.5568 14.1543 17.5436 14.2697 17.5305C14.3185 17.5248 14.3185 17.5248 14.3683 17.519C14.5248 17.5014 14.6723 17.4908 14.8306 17.4908Z" fill="#141614"/>
<path d="M13.8759 14.2383C14.0019 14.2775 14.1279 14.3168 14.2578 14.3573C14.2735 14.5798 14.2893 14.8023 14.3055 15.0316C14.3212 14.8221 14.337 14.6127 14.3532 14.3969C14.5107 14.4231 14.6683 14.4493 14.8306 14.4763C14.8306 15.3794 14.8306 16.2826 14.8306 17.2131C14.5313 17.2131 14.232 17.2131 13.9236 17.2131C13.8882 16.8207 13.8693 16.4332 13.8712 16.0395C13.8713 15.9875 13.8714 15.9355 13.8714 15.8819C13.8716 15.746 13.8721 15.61 13.8726 15.4741C13.8731 15.3345 13.8733 15.1948 13.8736 15.0552C13.8741 14.7829 13.8749 14.5106 13.8759 14.2383Z" fill="#111310"/>
<path d="M8.48211 8.12994C8.50574 8.16921 8.50574 8.16921 8.52984 8.20927C8.51409 8.24854 8.49834 8.2878 8.48211 8.32826C8.56087 8.31517 8.63963 8.30208 8.72078 8.2886C8.62626 8.38022 8.53175 8.47185 8.43438 8.56625C8.37137 8.55316 8.30836 8.54007 8.24345 8.52659C8.25532 8.55425 8.2672 8.58191 8.27943 8.61041C8.29572 8.76919 8.20869 8.85013 8.09727 8.97034C7.77649 9.33003 7.53153 9.69585 7.32758 10.1107C7.3073 10.1507 7.28703 10.1906 7.26614 10.2318C7.15015 10.4649 7.0608 10.6903 7.00122 10.9379C6.95467 11.0255 6.95467 11.0255 6.83865 11.0819C6.7139 11.1178 6.6094 11.141 6.47734 11.1445C6.33414 11.0651 6.33414 11.0651 6.30132 10.9412C6.29394 10.8847 6.29394 10.8847 6.28641 10.8271C6.4518 10.8075 6.4518 10.8075 6.62054 10.7875C6.62589 10.7219 6.62589 10.7219 6.63135 10.655C6.71073 9.8423 7.06328 8.92704 7.81385 8.36793C8.19166 8.1139 8.19166 8.1139 8.48211 8.12994Z" fill="#141513"/>
<path d="M11.2029 22.7663C11.2029 22.8318 11.2029 22.8972 11.2029 22.9646C10.4788 23.2348 9.61103 23.1961 8.8371 23.1307C8.78516 23.1266 8.78516 23.1266 8.73216 23.1223C8.48702 23.0988 8.27821 23.0488 8.0525 22.9646C8.02099 22.9254 7.98949 22.8861 7.95703 22.8457C8.0931 22.6761 8.23519 22.676 8.46717 22.6326C9.25643 22.5081 10.4758 22.4206 11.2029 22.7663Z" fill="#D6C3AB"/>
<path d="M22.8496 23.0439C23.2315 23.0439 23.2315 23.0439 23.327 23.0836C23.4398 23.0946 23.5527 23.1013 23.6659 23.1082C23.8055 23.1234 23.9371 23.1512 24.0731 23.1806C24.3052 23.2258 24.5415 23.2534 24.7769 23.2844C24.8797 23.298 24.9825 23.3117 25.0852 23.3255C25.1528 23.3344 25.1528 23.3344 25.2218 23.3435C25.3317 23.3613 25.3317 23.3613 25.4272 23.4009C25.5245 23.41 25.622 23.4172 25.7196 23.4232C25.798 23.4282 25.798 23.4282 25.8781 23.4333C25.9183 23.4357 25.9585 23.4381 26 23.4406C26 23.4668 26 23.493 26 23.5199C25.9513 23.5263 25.9026 23.5327 25.8524 23.5393C25.7068 23.5583 25.5611 23.5774 25.4154 23.5965C25.2498 23.6183 25.0841 23.6399 24.9184 23.6615C24.5476 23.71 24.1769 23.7588 23.8067 23.8104C23.7521 23.818 23.6974 23.8255 23.6411 23.8333C23.5414 23.8472 23.4416 23.8613 23.342 23.8757C23.298 23.8818 23.2541 23.8878 23.2088 23.8941C23.1713 23.8994 23.1339 23.9048 23.0953 23.9103C22.9928 23.9166 22.9928 23.9166 22.8019 23.8769C22.8177 23.602 22.8334 23.3272 22.8496 23.0439Z" fill="#D5C3AB"/>
<path d="M14.8783 21.5366C14.894 21.5366 14.9098 21.5366 14.926 21.5366C14.926 21.9031 14.926 22.2696 14.926 22.6472C15.052 22.6472 15.178 22.6472 15.3079 22.6472C15.4221 22.6572 15.4221 22.6572 15.5166 22.6715C15.5709 22.6794 15.5709 22.6794 15.6263 22.6875C15.6831 22.6963 15.6831 22.6963 15.741 22.7052C15.7814 22.7112 15.8217 22.7171 15.8633 22.7233C15.9915 22.7423 16.1195 22.7617 16.2476 22.7811C16.4158 22.8063 16.5841 22.8314 16.7523 22.8564C16.7931 22.8625 16.8338 22.8686 16.8757 22.8748C17.1478 22.9153 17.4202 22.9524 17.6936 22.9863C17.9538 23.0186 18.2134 23.0538 18.4731 23.0885C18.5273 23.0957 18.5814 23.1029 18.6371 23.1104C18.7684 23.1278 18.8997 23.1454 19.031 23.1629C19.031 23.2283 19.031 23.2938 19.031 23.3612C18.5776 23.3212 18.1342 23.2636 17.6879 23.1869C17.3826 23.1344 17.0766 23.0868 16.7697 23.0414C16.4868 22.9995 16.2057 22.9555 15.9254 22.9026C15.5204 22.8279 15.1095 22.7855 14.6987 22.7391C14.5672 22.7237 14.4363 22.7059 14.3055 22.6869C14.3055 22.6738 14.3055 22.6607 14.3055 22.6472C14.4945 22.6341 14.6835 22.6211 14.8783 22.6076C14.8783 22.2542 14.8783 21.9007 14.8783 21.5366Z" fill="#D4C4AC"/>
<path d="M7.43197 15.1902C7.56025 15.1754 7.56025 15.1754 7.71836 15.1902C7.88369 15.3123 7.96642 15.4084 8.00774 15.5894C8.00416 15.7769 7.96133 15.808 7.81383 15.9439C7.74319 16.0605 7.68243 16.1801 7.6229 16.3008C7.43793 16.2314 7.43793 16.2314 7.38424 16.1422C7.23964 16.1161 7.23964 16.1161 7.09784 16.1025C7.24133 15.9833 7.37583 15.9996 7.57517 15.9835C7.59092 15.9312 7.60667 15.8788 7.6229 15.8249C7.5914 15.8249 7.55989 15.8249 7.52743 15.8249C7.38199 15.8128 7.33621 15.785 7.2291 15.6984C7.13268 15.5697 7.12891 15.4977 7.14557 15.3489C7.22433 15.3489 7.30309 15.3489 7.38424 15.3489C7.39999 15.2965 7.41574 15.2442 7.43197 15.1902Z" fill="#5A748E"/>
<path d="M14.8783 17.4908C14.9886 17.4908 15.0988 17.4908 15.2124 17.4908C15.1967 17.517 15.1809 17.5432 15.1647 17.5702C15.1017 17.5702 15.0387 17.5702 14.9738 17.5702C14.9685 17.7821 14.975 17.9902 14.9982 18.2014C15.0348 18.6154 15.0221 19.0293 15.0157 19.444C15.0145 19.5322 15.0134 19.6203 15.0123 19.7084C15.0093 19.9386 15.006 20.1688 15.0026 20.399C14.9992 20.6346 14.9962 20.8702 14.9931 21.1058C14.9869 21.5667 14.9805 22.0277 14.9738 22.4886C14.958 22.4886 14.9423 22.4886 14.926 22.4886C14.8874 21.8449 14.8717 21.2031 14.8736 20.5587C14.8737 20.4693 14.8738 20.38 14.8738 20.2906C14.874 20.059 14.8745 19.8274 14.875 19.5958C14.8755 19.358 14.8757 19.1203 14.876 18.8825C14.8765 18.4186 14.8773 17.9547 14.8783 17.4908Z" fill="#EEEAD7"/>
<path d="M14.8783 21.5366C14.894 21.5366 14.9098 21.5366 14.926 21.5366C14.926 21.9031 14.926 22.2696 14.926 22.6472C15.052 22.6472 15.178 22.6472 15.3079 22.6472C15.5322 22.6701 15.7538 22.7052 15.9761 22.739C16.0349 22.7474 16.0938 22.7559 16.1544 22.7646C16.4598 22.8102 16.7406 22.8634 17.0262 22.9646C16.9947 22.9907 16.9632 23.0169 16.9308 23.0439C16.6525 23.0271 16.3829 22.9779 16.1104 22.9298C15.6407 22.8492 15.1692 22.7915 14.6941 22.7384C14.5641 22.7233 14.4348 22.7056 14.3055 22.6869C14.3055 22.6738 14.3055 22.6607 14.3055 22.6472C14.4945 22.6341 14.6835 22.6211 14.8783 22.6076C14.8783 22.2542 14.8783 21.9007 14.8783 21.5366Z" fill="#D3C3AB"/>
<path d="M7.47972 9.75623C7.53266 9.88821 7.52898 9.98016 7.47972 10.1132C7.45684 10.1309 7.43395 10.1486 7.41038 10.1668C7.31781 10.2488 7.2983 10.3148 7.26455 10.4232C7.25187 10.4601 7.2392 10.4969 7.22614 10.5349C7.20031 10.6123 7.17557 10.69 7.15193 10.7679C7.11286 10.8781 7.07767 10.9687 7.00239 11.0652C6.88679 11.1088 6.79295 11.1231 6.66668 11.131C6.6202 11.1377 6.6202 11.1377 6.5728 11.1445C6.50001 11.2532 6.50001 11.2532 6.47733 11.3825C6.43103 11.4624 6.38366 11.5419 6.33413 11.6205C6.21358 11.6067 6.1476 11.5836 6.05072 11.5213C5.97766 11.3785 6.03511 11.293 6.09994 11.1522C6.11422 11.1235 6.12849 11.0948 6.1432 11.0652C6.16191 11.0251 6.18061 10.985 6.19988 10.9437C6.21268 10.9183 6.22548 10.893 6.23867 10.8668C6.37011 10.9215 6.40644 11.0004 6.47733 11.1048C6.63485 11.0786 6.79237 11.0525 6.95466 11.0255C6.96253 10.9691 6.97041 10.9126 6.97852 10.8544C7.05967 10.4728 7.27183 10.1017 7.47972 9.75623Z" fill="#151613"/>
<path d="M13.9236 17.6099C13.9236 17.9371 13.9236 18.2643 13.9236 18.6015C13.9079 18.6015 13.8921 18.6015 13.8759 18.6015C13.8601 18.3528 13.8444 18.1041 13.8282 17.8479C13.7809 17.9395 13.7337 18.0311 13.685 18.1255C13.512 18.0776 13.4868 18.0344 13.3896 17.9098C13.3643 17.878 13.339 17.8461 13.313 17.8133C13.2554 17.7289 13.2554 17.7289 13.2554 17.6495C13.322 17.6428 13.3886 17.6362 13.4553 17.6297C13.4924 17.626 13.5295 17.6223 13.5677 17.6185C13.6859 17.6098 13.8049 17.6099 13.9236 17.6099Z" fill="#F3E2CC"/>
<path d="M18.0764 17.0942C18.0764 17.1073 18.0764 17.1204 18.0764 17.1339C17.8812 17.1569 17.686 17.1794 17.4908 17.2017C17.4246 17.2093 17.3584 17.217 17.2922 17.2248C16.9509 17.2649 16.6155 17.3008 16.2701 17.2941C16.1133 17.2918 15.9595 17.3022 15.8031 17.3124C15.7454 17.3161 15.6877 17.3198 15.6282 17.3236C15.5642 17.3278 15.5642 17.3278 15.4988 17.3322C15.4988 17.3061 15.4988 17.2799 15.4988 17.2529C15.9241 17.2136 15.9241 17.2136 16.358 17.1736C16.358 17.1605 16.358 17.1474 16.358 17.1339C16.5459 17.1271 16.7339 17.1206 16.9218 17.1141C16.9744 17.1122 17.0269 17.1103 17.081 17.1083C17.413 17.0969 17.7441 17.0917 18.0764 17.0942Z" fill="#AD4735"/>
<path d="M16.006 17.1711C16.0585 17.1712 16.1109 17.1714 16.165 17.1716C16.293 17.1721 16.421 17.1727 16.5489 17.1735C16.5489 17.1866 16.5489 17.1997 16.5489 17.2132C16.2024 17.2263 15.8559 17.2394 15.4988 17.2529C15.4988 17.2791 15.4988 17.3052 15.4988 17.3322C15.5645 17.3236 15.5645 17.3236 15.6316 17.3148C15.9405 17.276 16.2365 17.2425 16.5489 17.2529C16.5489 17.266 16.5489 17.2791 16.5489 17.2925C16.4277 17.3126 16.3064 17.3324 16.185 17.352C16.1509 17.3577 16.1169 17.3634 16.0819 17.3692C15.5703 17.4511 15.5703 17.4511 15.3556 17.3322C15.247 17.3058 15.247 17.3058 15.1319 17.2876C15.0933 17.2809 15.0547 17.2743 15.015 17.2674C14.9856 17.2626 14.9563 17.2578 14.926 17.2529C14.926 17.2398 14.926 17.2267 14.926 17.2132C15.2871 17.1759 15.6424 17.1687 16.006 17.1711Z" fill="#A83827"/>
<path d="M8.81623 8.05057C8.81188 8.25695 8.79331 8.3669 8.61337 8.51415C8.55417 8.55838 8.49451 8.6022 8.43437 8.64554C8.38723 8.68404 8.34043 8.72284 8.29416 8.76206C8.24543 8.80255 8.24543 8.80255 8.19571 8.84387C8.22721 8.77842 8.25872 8.71297 8.29117 8.64554C8.25967 8.63245 8.22817 8.61936 8.19571 8.60588C8.21146 8.55352 8.22721 8.50116 8.24344 8.44722C8.30645 8.4734 8.36946 8.49958 8.43437 8.52655C8.49738 8.4611 8.56039 8.39566 8.6253 8.32823C8.57805 8.32823 8.53079 8.32823 8.48211 8.32823C8.48211 8.27587 8.48211 8.22351 8.48211 8.16957C8.43485 8.14339 8.38759 8.11721 8.33891 8.09024C8.51943 8.01738 8.62271 8.00463 8.81623 8.05057Z" fill="#161513"/>
<path d="M7.47971 9.75623C7.53266 9.88821 7.52898 9.98016 7.47971 10.1132C7.45683 10.1309 7.43395 10.1486 7.41037 10.1668C7.3178 10.2488 7.29829 10.3148 7.26454 10.4232C7.25187 10.4601 7.23919 10.4969 7.22613 10.5349C7.20031 10.6123 7.17557 10.69 7.15192 10.7679C7.11286 10.8781 7.07767 10.9687 7.00239 11.0652C6.88678 11.1088 6.79295 11.1231 6.66667 11.131C6.6202 11.1377 6.6202 11.1377 6.57279 11.1445C6.5 11.2532 6.5 11.2532 6.47733 11.3825C6.43102 11.4624 6.38365 11.5419 6.33413 11.6205C6.27555 11.4744 6.30134 11.4381 6.37589 11.3007C6.44977 11.1812 6.48907 11.1189 6.63675 11.0613C6.74373 11.0423 6.84546 11.0298 6.95465 11.0255C6.95711 11.0027 6.95958 10.98 6.96211 10.9566C7.0299 10.5347 7.25185 10.1349 7.47971 9.75623Z" fill="#9B9C99"/>
<path d="M7.52744 15.1903C7.69384 15.1978 7.75565 15.2215 7.87648 15.3192C7.96292 15.4363 7.9755 15.4924 7.95703 15.6266C7.87827 15.6397 7.79951 15.6528 7.71837 15.6663C7.56231 15.5241 7.49558 15.4234 7.47971 15.23C7.49546 15.2169 7.51121 15.2038 7.52744 15.1903Z" fill="#969691"/>
<path d="M11.0597 15.111C11.0912 15.111 11.1227 15.111 11.1551 15.111C11.1394 15.2157 11.1236 15.3204 11.1074 15.4283C11.1547 15.3759 11.2019 15.3236 11.2506 15.2696C11.2821 15.2827 11.3136 15.2958 11.3461 15.3093C11.3303 15.3616 11.3146 15.414 11.2983 15.4679C11.3298 15.4549 11.3613 15.4418 11.3938 15.4283C11.4096 15.4675 11.4253 15.5068 11.4415 15.5473C11.2761 15.6062 11.2761 15.6062 11.1074 15.6663C11.0759 15.6401 11.0444 15.6139 11.0119 15.5869C10.9647 15.5869 10.9174 15.5869 10.8687 15.5869C10.8914 15.515 10.9143 15.4431 10.9374 15.3713C10.9501 15.3312 10.9628 15.2912 10.976 15.2499C11.0119 15.1506 11.0119 15.1506 11.0597 15.111Z" fill="#536E80"/>
<path d="M14.0668 17.4115C14.3661 17.4246 14.6654 17.4377 14.9737 17.4512C14.9265 17.4708 14.9265 17.4708 14.8783 17.4908C14.8783 17.7788 14.8783 18.0668 14.8783 18.3635C14.8625 18.3635 14.8468 18.3635 14.8305 18.3635C14.8305 18.0755 14.8305 17.7875 14.8305 17.4908C14.5385 17.5299 14.5385 17.5299 14.2465 17.5692C14.1918 17.5764 14.1918 17.5764 14.136 17.5838C14.0988 17.5888 14.0615 17.5938 14.0231 17.5989C13.9236 17.6098 13.9236 17.6098 13.7804 17.6098C13.7804 17.5836 13.7804 17.5575 13.7804 17.5305C13.8749 17.5043 13.9694 17.4781 14.0668 17.4512C14.0668 17.4381 14.0668 17.425 14.0668 17.4115Z" fill="#984D41"/>
<path d="M7.19331 15.7059C7.21792 15.7198 7.24254 15.7337 7.26789 15.7481C7.42911 15.7996 7.55153 15.7723 7.71837 15.7456C7.67064 15.8596 7.67064 15.8596 7.57517 15.9836C7.44682 16.029 7.3326 16.0439 7.19331 16.0629C7.19331 16.0891 7.19331 16.1153 7.19331 16.1422C7.1303 16.1292 7.0673 16.1161 7.00238 16.1026C7.00238 16.0633 7.00238 16.024 7.00238 15.9836C7.04964 15.9705 7.09689 15.9574 7.14558 15.9439C7.14459 15.912 7.14361 15.8801 7.1426 15.8472C7.14558 15.7456 7.14558 15.7456 7.19331 15.7059Z" fill="#59758E"/>
<path d="M14.8783 21.5366C14.894 21.5366 14.9098 21.5366 14.926 21.5366C14.926 21.9031 14.926 22.2696 14.926 22.6472C15.052 22.6472 15.178 22.6472 15.3079 22.6472C15.2449 22.6603 15.1819 22.6734 15.1169 22.6869C15.1169 22.7131 15.1169 22.7393 15.1169 22.7662C14.8492 22.7401 14.5814 22.7139 14.3055 22.6869C14.3055 22.6738 14.3055 22.6607 14.3055 22.6472C14.4945 22.6341 14.6835 22.6211 14.8783 22.6076C14.8783 22.2542 14.8783 21.9007 14.8783 21.5366Z" fill="#B7AF9F"/>
<path d="M6.33414 17.8081C6.53892 17.8081 6.74369 17.8081 6.95467 17.8081C6.90741 17.8277 6.90741 17.8277 6.8592 17.8478C6.8592 17.887 6.8592 17.9263 6.8592 17.9668C6.51259 18.0546 6.51259 18.0546 6.33414 18.0114C6.30264 17.9967 6.27114 17.9819 6.23868 17.9668C6.27018 17.9144 6.30169 17.862 6.33414 17.8081Z" fill="#587088"/>
<path d="M6.8592 17.8875C6.90646 17.9136 6.95371 17.9398 7.0024 17.9668C6.59562 18.2587 6.59562 18.2587 6.28641 18.2444C6.28641 18.1921 6.28641 18.1397 6.28641 18.0858C6.36392 18.0658 6.4415 18.046 6.5191 18.0263C6.5623 18.0152 6.60549 18.0042 6.65 17.9928C6.76373 17.9668 6.76373 17.9668 6.8592 17.9668C6.8592 17.9406 6.8592 17.9144 6.8592 17.8875Z" fill="#566F83"/>
<path d="M13.9236 17.6099C13.9236 17.9371 13.9236 18.2643 13.9236 18.6015C13.9079 18.6015 13.8921 18.6015 13.8759 18.6015C13.8759 18.3004 13.8759 17.9994 13.8759 17.6892C13.8286 17.6892 13.7814 17.6892 13.7327 17.6892C13.7327 17.7546 13.7327 17.8201 13.7327 17.8875C13.6854 17.8875 13.6382 17.8875 13.5895 17.8875C13.5895 17.8352 13.5895 17.7828 13.5895 17.7289C13.4792 17.7289 13.369 17.7289 13.2554 17.7289C13.2554 17.7027 13.2554 17.6765 13.2554 17.6495C13.322 17.6428 13.3886 17.6362 13.4553 17.6297C13.4924 17.626 13.5295 17.6223 13.5677 17.6185C13.6859 17.6098 13.8049 17.6099 13.9236 17.6099Z" fill="#E3D1BF"/>
<path d="M11.4893 15.0316C11.508 15.2081 11.4488 15.3149 11.3461 15.4679C11.2988 15.4679 11.2515 15.4679 11.2029 15.4679C11.2344 15.4287 11.2659 15.3894 11.2983 15.3489C11.197 15.34 11.197 15.34 11.1253 15.4084C11.1036 15.4281 11.082 15.4477 11.0597 15.4679C11.0706 15.4099 11.0828 15.3521 11.0955 15.2944C11.1021 15.2622 11.1088 15.23 11.1156 15.1968C11.1551 15.1109 11.1551 15.1109 11.2454 15.0598C11.3461 15.0316 11.3461 15.0316 11.4893 15.0316Z" fill="#758EA4"/>
<path d="M19.0788 13.921C19.0847 13.9456 19.0906 13.9701 19.0967 13.9954C19.1204 14.0873 19.1204 14.0873 19.222 14.159C19.1905 14.159 19.159 14.159 19.1265 14.159C19.1108 14.591 19.095 15.0229 19.0788 15.4679C19.063 15.4679 19.0473 15.4679 19.031 15.4679C19.0299 15.254 19.029 15.0401 19.0284 14.8262C19.0282 14.7533 19.0279 14.6805 19.0274 14.6076C19.0269 14.5032 19.0266 14.3987 19.0264 14.2943C19.0261 14.2615 19.0259 14.2287 19.0256 14.195C19.0256 14.1169 19.0281 14.0388 19.031 13.9607C19.0468 13.9476 19.0625 13.9345 19.0788 13.921Z" fill="#B2A9E3"/>
<path d="M11.7757 15.3489C11.8072 15.3489 11.8387 15.3489 11.8711 15.3489C11.8593 15.4925 11.8355 15.5382 11.7039 15.636C11.6557 15.6631 11.6075 15.6903 11.5579 15.7183C11.5096 15.7459 11.4613 15.7736 11.4115 15.8021C11.3742 15.8227 11.3368 15.8433 11.2983 15.8645C11.2668 15.8514 11.2353 15.8383 11.2029 15.8249C11.2746 15.658 11.4074 15.5972 11.5847 15.5075C11.5847 15.5337 11.5847 15.5599 11.5847 15.5869C11.6162 15.5869 11.6477 15.5869 11.6802 15.5869C11.6871 15.555 11.694 15.5231 11.7011 15.4902C11.7279 15.3885 11.7279 15.3885 11.7757 15.3489Z" fill="#B2A9E3"/>
<path d="M11.9666 17.8875C12.0296 17.8875 12.0926 17.8875 12.1575 17.8875C12.1575 17.9136 12.1575 17.9398 12.1575 17.9668C12.189 17.9668 12.2205 17.9668 12.253 17.9668C12.253 17.993 12.253 18.0191 12.253 18.0461C12.1597 18.0804 12.0662 18.1142 11.9725 18.1478C11.9205 18.1666 11.8684 18.1855 11.8148 18.2049C11.7704 18.218 11.726 18.231 11.6802 18.2444C11.6487 18.2313 11.6172 18.2183 11.5847 18.2048C11.6083 18.1885 11.6318 18.1723 11.6561 18.1555C11.6867 18.1341 11.7173 18.1128 11.7488 18.0907C11.7793 18.0696 11.8097 18.0484 11.8411 18.0266C11.924 17.9699 11.924 17.9699 11.9666 17.8875Z" fill="#A94539"/>
<path d="M12.1098 16.6578C12.2168 16.7467 12.2512 16.8168 12.3067 16.933C12.3235 16.9677 12.3404 17.0024 12.3578 17.0382C12.3962 17.1338 12.3962 17.1338 12.3962 17.2528C12.2859 17.2528 12.1756 17.2528 12.062 17.2528C12.0935 17.2397 12.125 17.2266 12.1575 17.2131C12.1769 17.1211 12.193 17.0284 12.2052 16.9355C12.1737 16.9355 12.1422 16.9355 12.1098 16.9355C12.1098 16.8439 12.1098 16.7522 12.1098 16.6578Z" fill="#F8DDC3"/>
<path d="M12.062 16.4993C12.1575 16.4993 12.1575 16.4993 12.2649 16.586C12.3299 16.6413 12.3299 16.6413 12.3962 16.6976C12.49 16.7655 12.586 16.8306 12.6826 16.8959C12.6353 16.909 12.5881 16.9221 12.5394 16.9356C12.4111 16.8587 12.4111 16.8587 12.3007 16.7769C12.285 16.8293 12.2692 16.8816 12.253 16.9356C12.2209 16.8778 12.1892 16.82 12.1575 16.762C12.1398 16.7298 12.1221 16.6976 12.1038 16.6644C12.062 16.5786 12.062 16.5786 12.062 16.4993Z" fill="#A44237"/>
<path d="M6.23866 10.8668C6.27017 10.8799 6.30167 10.893 6.33413 10.9065C6.34308 10.9982 6.34308 10.9982 6.33413 11.1048C6.28742 11.1453 6.23963 11.185 6.19093 11.2238C6.15424 11.3347 6.1432 11.4259 6.1432 11.5411C6.09594 11.5019 6.04869 11.4626 6 11.4221C6.07364 11.2349 6.14692 11.0486 6.23866 10.8668Z" fill="#25201A"/>
<path d="M7.14558 15.3489C7.29448 15.3623 7.36615 15.3735 7.47374 15.4629C7.49146 15.4907 7.50918 15.5185 7.52744 15.5472C7.51169 15.5865 7.49594 15.6257 7.47971 15.6662C7.4482 15.6007 7.4167 15.5353 7.38424 15.4679C7.33699 15.4679 7.28973 15.4679 7.24104 15.4679C7.25778 15.4916 7.27452 15.5153 7.29176 15.5398C7.33651 15.6265 7.33651 15.6265 7.28878 15.7455C7.17639 15.6444 7.14638 15.5984 7.13663 15.458C7.13958 15.422 7.14253 15.386 7.14558 15.3489Z" fill="#DFE6DC"/>
<path d="M7.57516 15.1903C7.72094 15.2033 7.76758 15.2312 7.87349 15.3192C7.9634 15.4366 7.97571 15.4908 7.95703 15.6266C7.87827 15.6397 7.79951 15.6528 7.71836 15.6663C7.73411 15.5747 7.74987 15.483 7.7661 15.3886C7.71884 15.3616 7.71884 15.3616 7.67063 15.3341C7.63913 15.3128 7.60762 15.2916 7.57516 15.2696C7.57516 15.2435 7.57516 15.2173 7.57516 15.1903Z" fill="#E1E8DE"/>
<path d="M12.5871 17.9271C12.5692 18.004 12.5692 18.004 12.5394 18.0858C12.4439 18.1254 12.4439 18.1254 12.2858 18.1428C12.1312 18.1624 12.0124 18.1911 11.8711 18.2444C11.8396 18.2183 11.8081 18.1921 11.7757 18.1651C11.8929 18.1253 12.0103 18.0856 12.1277 18.0461C12.161 18.0348 12.1944 18.0234 12.2288 18.0117C12.4808 17.9271 12.4808 17.9271 12.5871 17.9271Z" fill="#F5D4BA"/>
<path d="M6.95467 9.47852C6.98617 9.47852 7.01767 9.47852 7.05013 9.47852C7.0366 9.55459 7.02259 9.6306 7.00837 9.70659C7.00061 9.74892 6.99286 9.79126 6.98487 9.83488C6.95752 9.9432 6.9329 10.0215 6.8592 10.1132C6.81195 10.1262 6.76469 10.1393 6.716 10.1528C6.86279 9.69581 6.86279 9.69581 6.95467 9.47852Z" fill="#25221D"/>
<path d="M8.72077 8.28857C8.72077 8.45341 8.61184 8.52026 8.48211 8.63316C8.45934 8.65344 8.43657 8.67371 8.41312 8.6946C8.35687 8.7446 8.3002 8.79428 8.24344 8.84388C8.24344 8.72489 8.24344 8.72489 8.29117 8.64556C8.25967 8.63247 8.22817 8.61938 8.19571 8.60589C8.21146 8.55353 8.22721 8.50118 8.24344 8.44723C8.30645 8.47341 8.36946 8.49959 8.43437 8.52656C8.52888 8.44803 8.62339 8.36949 8.72077 8.28857Z" fill="#7C7E7C"/>
<path d="M7.62292 18.8791C7.82811 18.8725 7.96992 18.8707 8.14798 18.9584C8.17949 18.9584 8.21099 18.9584 8.24345 18.9584C8.2592 18.9977 8.27495 19.0369 8.29118 19.0774C8.0368 19.0641 7.8316 19.053 7.62292 18.9187C7.62292 18.9057 7.62292 18.8926 7.62292 18.8791Z" fill="#556D7D"/>
<path d="M7.24106 15.4679C7.38426 15.4679 7.38426 15.4679 7.46182 15.5274C7.48348 15.547 7.50514 15.5667 7.52745 15.5869C7.54321 15.5869 7.55896 15.5869 7.57519 15.5869C7.57519 15.6523 7.57519 15.7178 7.57519 15.7852C7.51218 15.7983 7.44917 15.8114 7.38426 15.8249C7.337 15.7071 7.28975 15.5893 7.24106 15.4679Z" fill="#929484"/>
<path d="M7.43198 15.1903C7.44773 15.1903 7.46348 15.1903 7.47971 15.1903C7.48894 15.2152 7.49817 15.24 7.50768 15.2656C7.52011 15.298 7.53254 15.3304 7.54534 15.3638C7.55753 15.3961 7.56971 15.4283 7.58226 15.4615C7.61807 15.5538 7.61807 15.5538 7.71837 15.6266C7.84169 15.6332 7.84169 15.6332 7.95704 15.6266C7.97279 15.6659 7.98854 15.7052 8.00477 15.7456C7.92012 15.772 7.92012 15.772 7.81384 15.7853C7.63889 15.7037 7.50695 15.5869 7.40811 15.4432C7.38264 15.3426 7.38937 15.2859 7.43198 15.1903Z" fill="#5F6E79"/>
<path d="M9.08176 18.6387C9.13935 18.6399 9.13935 18.6399 9.19811 18.6412C9.19811 18.6673 9.19811 18.6935 9.19811 18.7205C9.22961 18.7336 9.26111 18.7467 9.29357 18.7601C9.29357 18.7863 9.29357 18.8125 9.29357 18.8395C9.26207 18.8395 9.23056 18.8395 9.19811 18.8395C9.18235 18.8787 9.1666 18.918 9.15037 18.9585C9.13462 18.9323 9.11887 18.9061 9.10264 18.8791C9.03963 18.8791 8.97663 18.8791 8.91171 18.8791C8.90967 18.8131 8.90977 18.7469 8.91171 18.6808C8.95944 18.6412 8.95944 18.6412 9.08176 18.6387Z" fill="#5D798A"/>
<path d="M6.81147 11.9377C6.88905 11.9433 6.96661 11.9492 7.04416 11.9551C7.08736 11.9583 7.13055 11.9615 7.17505 11.9649C7.28879 11.9774 7.28879 11.9774 7.38426 12.0171C7.33653 12.0567 7.33653 12.0567 7.22745 12.0606C7.16183 12.0599 7.16183 12.0599 7.09488 12.0592C7.05101 12.0589 7.00714 12.0585 6.96194 12.0581C6.92803 12.0577 6.89413 12.0572 6.8592 12.0567C6.87495 12.096 6.8907 12.1353 6.90693 12.1757C6.93843 12.1888 6.96994 12.2019 7.0024 12.2154C7.0024 12.2416 7.0024 12.2678 7.0024 12.2947C6.88426 12.2555 6.88426 12.2555 6.76373 12.2154C6.77948 12.1238 6.79524 12.0321 6.81147 11.9377Z" fill="#6B7A88"/>
<path d="M14.6396 11.2238C14.6396 11.2499 14.6396 11.2761 14.6396 11.3031C14.5766 11.3031 14.5136 11.3031 14.4487 11.3031C14.4329 11.3293 14.4172 11.3555 14.4009 11.3824C14.2434 11.3563 14.0859 11.3301 13.9236 11.3031C13.9236 11.29 13.9236 11.2769 13.9236 11.2634C14.1604 11.211 14.3967 11.2202 14.6396 11.2238Z" fill="#1C1C1A"/>
<path d="M15.8807 11.0254C15.8807 11.0516 15.8807 11.0778 15.8807 11.1048C15.6452 11.1831 15.4624 11.198 15.2124 11.1841C15.1809 11.1579 15.1494 11.1317 15.1169 11.1048C15.3738 11.0575 15.6159 11.0139 15.8807 11.0254Z" fill="#25231F"/>
<path d="M8.3389 8.13C8.4019 8.14309 8.46491 8.15618 8.52983 8.16967C8.51408 8.22203 8.49832 8.27438 8.4821 8.32833C8.56085 8.31524 8.63961 8.30215 8.72076 8.28866C8.67536 8.33517 8.62953 8.3814 8.58353 8.42749C8.55805 8.45326 8.53258 8.47903 8.50634 8.50558C8.48258 8.52562 8.45883 8.54567 8.43436 8.56632C8.40286 8.56632 8.37136 8.56632 8.3389 8.56632C8.3389 8.54014 8.3389 8.51396 8.3389 8.48699C8.3704 8.48699 8.4019 8.48699 8.43436 8.48699C8.41122 8.30271 8.41122 8.30271 8.3389 8.13Z" fill="#0D0E0C"/>
<path d="M8.62531 10.2322C8.82737 10.2568 8.98439 10.3157 9.16528 10.3933C9.21629 10.415 9.2673 10.4368 9.31985 10.4592C9.35843 10.4759 9.39701 10.4926 9.43676 10.5098C9.31788 10.5371 9.22775 10.5495 9.10263 10.5495C9.10263 10.5102 9.10263 10.471 9.10263 10.4305C8.97662 10.4043 8.8506 10.3781 8.72077 10.3512C8.72077 10.325 8.72077 10.2988 8.72077 10.2718C8.68927 10.2588 8.65776 10.2457 8.62531 10.2322Z" fill="#B2A9E3"/>
<path d="M6.33414 17.8081C6.36565 17.8081 6.39715 17.8081 6.42961 17.8081C6.42961 17.8605 6.42961 17.9128 6.42961 17.9668C6.57137 17.9406 6.71314 17.9144 6.8592 17.8874C6.8592 17.9136 6.8592 17.9398 6.8592 17.9668C6.51259 18.0546 6.51259 18.0546 6.33414 18.0114C6.30264 17.9967 6.27114 17.9819 6.23868 17.9668C6.27018 17.9144 6.30169 17.862 6.33414 17.8081Z" fill="#778EA0"/>
<path d="M6.47733 15.0713C6.59691 15.1105 6.65784 15.1373 6.72867 15.2281C6.82101 15.4071 6.88375 15.5466 6.85919 15.7456C6.74297 15.6296 6.68761 15.5316 6.64141 15.3861C6.60035 15.2579 6.56758 15.1838 6.47733 15.0713Z" fill="#5A6F7A"/>
<path d="M6.66825 10.5099C6.684 10.5099 6.69975 10.5099 6.71598 10.5099C6.71598 10.6146 6.71598 10.7193 6.71598 10.8272C6.83412 10.8665 6.83412 10.8665 6.95464 10.9065C6.95464 10.9458 6.95464 10.9851 6.95464 11.0255C6.84438 11.0386 6.73412 11.0517 6.62051 11.0652C6.66777 11.0128 6.71502 10.9605 6.76371 10.9065C6.73221 10.9065 6.7007 10.9065 6.66825 10.9065C6.66825 10.7756 6.66825 10.6447 6.66825 10.5099Z" fill="#B2A9E3"/>
<path d="M7.24106 18.0461C7.27256 18.0461 7.30407 18.0461 7.33652 18.0461C7.35228 18.0854 7.36803 18.1247 7.38426 18.1651C7.41576 18.1782 7.44726 18.1913 7.47972 18.2048C7.47972 18.2702 7.47972 18.3357 7.47972 18.4031C7.41671 18.4162 7.35371 18.4293 7.28879 18.4428C7.27304 18.3119 7.25729 18.181 7.24106 18.0461Z" fill="#677C8C"/>
<path d="M15.1169 12.6121C15.3107 12.638 15.4768 12.6892 15.6569 12.7534C15.7334 12.7804 15.7334 12.7804 15.8115 12.8081C15.8694 12.8288 15.8694 12.8288 15.9284 12.85C15.9284 12.8631 15.9284 12.8762 15.9284 12.8897C15.8181 12.8897 15.7079 12.8897 15.5943 12.8897C15.5785 12.8635 15.5628 12.8374 15.5465 12.8104C15.4259 12.7844 15.4259 12.7844 15.3079 12.7707C15.3079 12.7445 15.3079 12.7184 15.3079 12.6914C15.2449 12.6652 15.1819 12.639 15.1169 12.6121Z" fill="#5C6C7C"/>
<path d="M6.4296 17.6495C6.49819 17.6473 6.56682 17.6458 6.63544 17.6445C6.67365 17.6436 6.71186 17.6427 6.75123 17.6417C6.85919 17.6495 6.85919 17.6495 7.00239 17.7288C6.87109 17.7652 6.7943 17.7728 6.65931 17.7709C6.56923 17.7697 6.56923 17.7697 6.47733 17.7685C6.46158 17.7292 6.44583 17.6899 6.4296 17.6495Z" fill="#526675"/>
<path d="M13.3031 16.5389C13.3708 16.6514 13.3443 16.7369 13.33 16.8612C13.3251 16.9047 13.3202 16.9481 13.3152 16.9929C13.3112 17.0264 13.3072 17.0598 13.3031 17.0942C13.2315 16.9773 13.1695 16.8596 13.1122 16.7373C13.1752 16.6718 13.2382 16.6064 13.3031 16.5389Z" fill="#AA4737"/>
<path d="M18.7446 10.6289C18.6816 10.642 18.6186 10.6551 18.5537 10.6685C18.5537 10.6947 18.5537 10.7209 18.5537 10.7479C18.3477 10.7781 18.1841 10.7939 17.9809 10.7479C17.9809 10.7348 17.9809 10.7217 17.9809 10.7082C18.0634 10.6948 18.146 10.6816 18.2285 10.6685C18.2745 10.6612 18.3205 10.6538 18.3678 10.6462C18.4961 10.6301 18.6152 10.6257 18.7446 10.6289Z" fill="#413F37"/>
<path d="M10.0573 16.3802C10.0573 16.4718 10.0573 16.5635 10.0573 16.6579C9.91407 16.6182 9.91407 16.6182 9.83352 16.4967C9.81285 16.4583 9.79217 16.4198 9.77087 16.3802C9.88977 16.3308 9.93368 16.3494 10.0573 16.3802Z" fill="#E5E6D9"/>
<path d="M10.2959 15.825C10.2005 15.944 10.2005 15.944 10.0972 15.9642C10.0584 15.9665 10.0196 15.9689 9.9797 15.9712C9.92119 15.9751 9.92119 15.9751 9.86149 15.9791C9.83159 15.9806 9.80168 15.9821 9.77087 15.9836C9.77087 15.9574 9.77087 15.9313 9.77087 15.9043C10.1255 15.7626 10.1255 15.7626 10.2959 15.825Z" fill="#566E80"/>
<path d="M11.7279 15.3093C11.7437 15.3617 11.7594 15.414 11.7757 15.468C11.7284 15.4876 11.7284 15.4876 11.6802 15.5077C11.6802 15.5338 11.6802 15.56 11.6802 15.587C11.5688 15.587 11.4574 15.587 11.3461 15.587C11.3618 15.5346 11.3776 15.4823 11.3938 15.4283C11.4312 15.4234 11.4686 15.4185 11.5072 15.4134C11.6392 15.3969 11.6392 15.3969 11.7279 15.3093Z" fill="#809CAE"/>
<path d="M15.0215 11.7791C15.2201 11.7759 15.4008 11.7798 15.5943 11.8188C15.5943 11.8318 15.5943 11.8449 15.5943 11.8584C15.3532 11.8995 15.123 11.9022 14.8783 11.8981C14.9256 11.885 14.9728 11.8719 15.0215 11.8584C15.0215 11.8322 15.0215 11.8061 15.0215 11.7791Z" fill="#211F1B"/>
<path d="M6.8592 18.0461C6.8907 18.0592 6.9222 18.0723 6.95466 18.0858C6.90741 18.1513 6.86015 18.2167 6.81146 18.2841C6.78094 18.2768 6.75043 18.2694 6.71898 18.2618C6.67025 18.2532 6.67025 18.2532 6.62053 18.2445C6.60478 18.2576 6.58903 18.2706 6.5728 18.2841C6.49327 18.2857 6.41367 18.2858 6.33414 18.2841C6.35875 18.2743 6.38336 18.2645 6.40872 18.2544C6.47647 18.2255 6.5436 18.1955 6.60879 18.1628C6.69072 18.1217 6.77489 18.0838 6.8592 18.0461Z" fill="#88A1B5"/>
<path d="M7.52743 15.9835C7.52546 16.0138 7.5235 16.0441 7.52147 16.0752C7.51689 16.1909 7.51689 16.1909 7.6229 16.3008C7.43793 16.2314 7.43793 16.2314 7.38424 16.1422C7.23964 16.1161 7.23964 16.1161 7.09784 16.1025C7.23376 15.9896 7.33823 15.9835 7.52743 15.9835Z" fill="#576D7C"/>
<path d="M17.79 23.0439C17.8755 23.0485 17.961 23.0535 18.0465 23.0588C18.118 23.063 18.118 23.063 18.1909 23.0672C18.315 23.0836 18.315 23.0836 18.4105 23.1629C18.1979 23.1826 18.1979 23.1826 17.9809 23.2026C17.9809 23.1764 17.9809 23.1502 17.9809 23.1233C17.9179 23.0971 17.8549 23.0709 17.79 23.0439Z" fill="#CCBEA5"/>
<path d="M8.81622 8.05063C8.78472 8.11607 8.75322 8.18152 8.72076 8.24895C8.68926 8.22277 8.65775 8.19659 8.62529 8.16962C8.53039 8.15385 8.43487 8.14036 8.3389 8.12996C8.49899 7.99692 8.6085 8.00864 8.81622 8.05063Z" fill="#27221E"/>
<path d="M7.62292 18.6411C7.73927 18.6733 7.73927 18.6733 7.86159 18.7204C7.87734 18.7597 7.89309 18.799 7.90932 18.8394C7.81481 18.8525 7.7203 18.8656 7.62292 18.8791C7.62292 18.8006 7.62292 18.722 7.62292 18.6411Z" fill="#5E7895"/>
<path d="M9.6277 18.4031C9.6592 18.4031 9.69071 18.4031 9.72317 18.4031C9.71529 18.4227 9.70741 18.4423 9.6993 18.4626C9.66556 18.6028 9.67257 18.7361 9.67543 18.8791C9.62818 18.8921 9.58092 18.9052 9.53224 18.9187C9.52427 18.7235 9.52038 18.5814 9.6277 18.4031Z" fill="#55697D"/>
<path d="M7.76612 15.111C7.81337 15.111 7.86063 15.111 7.90931 15.111C7.94961 15.2688 7.97838 15.4271 8.00478 15.5869C7.99297 15.5649 7.98115 15.5428 7.96898 15.52C7.91015 15.4219 7.91015 15.4219 7.8049 15.3266C7.77635 15.2947 7.7478 15.2628 7.71838 15.23C7.73414 15.1907 7.74989 15.1514 7.76612 15.111Z" fill="#566D7E"/>
<path d="M15.642 11.6998C15.768 11.6998 15.894 11.6998 16.0239 11.6998C16.0396 11.726 16.0554 11.7522 16.0716 11.7792C15.9136 11.8189 15.7709 11.8229 15.6062 11.8213C15.5592 11.8209 15.5122 11.8206 15.4638 11.8202C15.4281 11.8198 15.3924 11.8193 15.3556 11.8188C15.3556 11.8057 15.3556 11.7926 15.3556 11.7792C15.4501 11.7792 15.5446 11.7792 15.642 11.7792C15.642 11.753 15.642 11.7268 15.642 11.6998Z" fill="#0C0C07"/>
<path d="M7.24103 8.96289C7.25679 8.98907 7.27254 9.01525 7.28877 9.04222C7.32027 9.05531 7.35177 9.0684 7.38423 9.08188C7.33698 9.14733 7.28972 9.21278 7.24103 9.28021C7.18733 9.2108 7.18733 9.2108 7.14557 9.12155C7.18733 9.0323 7.18733 9.0323 7.24103 8.96289Z" fill="#1B1D18"/>
<path d="M21.6563 23.8768C21.8454 23.8768 22.0344 23.8768 22.2291 23.8768C22.2449 23.9161 22.2606 23.9554 22.2769 23.9958C22.2003 23.9913 22.1237 23.9862 22.0472 23.981C22.0045 23.9782 21.9619 23.9754 21.9179 23.9726C21.7995 23.9562 21.7995 23.9562 21.6563 23.8768Z" fill="#0A0806"/>
<path d="M6.71599 18.2048C6.71599 18.2441 6.71599 18.2834 6.71599 18.3238C6.74749 18.3369 6.779 18.35 6.81145 18.3635C6.70119 18.3766 6.59093 18.3897 6.47733 18.4032C6.47733 18.3639 6.47733 18.3246 6.47733 18.2842C6.62052 18.2048 6.62052 18.2048 6.71599 18.2048Z" fill="#657687"/>
<path d="M7.0024 18.0461C7.04966 18.0723 7.09691 18.0985 7.1456 18.1255C6.8771 18.3238 6.8771 18.3238 6.716 18.3238C6.78392 18.2109 6.89582 18.1347 7.0024 18.0461Z" fill="#576B79"/>
<path d="M19.4606 10.5495C19.4921 10.5756 19.5236 10.6018 19.5561 10.6288C19.2399 10.6685 19.2399 10.6685 19.0788 10.6685C19.0788 10.6423 19.0788 10.6161 19.0788 10.5891C19.2106 10.5343 19.3149 10.5419 19.4606 10.5495Z" fill="#201B15"/>
<path d="M12.4916 16.9355C12.5901 16.9529 12.5901 16.9529 12.6826 16.9752C12.6511 16.9752 12.6196 16.9752 12.5871 16.9752C12.5812 17.0202 12.5753 17.0652 12.5692 17.1116C12.5594 17.1582 12.5495 17.2048 12.5394 17.2529C12.4921 17.2725 12.4921 17.2725 12.4439 17.2925C12.4282 17.2402 12.4124 17.1878 12.3962 17.1339C12.4277 17.1339 12.4592 17.1339 12.4916 17.1339C12.4784 17.0958 12.4784 17.0958 12.4648 17.057C12.4545 17.0165 12.4545 17.0165 12.4439 16.9752C12.4597 16.9621 12.4754 16.949 12.4916 16.9355Z" fill="#B43626"/>
<path d="M11.4415 15.944C11.5045 15.9571 11.5676 15.9701 11.6325 15.9836C11.6325 16.036 11.6325 16.0883 11.6325 16.1423C11.5222 16.1292 11.4119 16.1161 11.2983 16.1026C11.3456 16.0895 11.3929 16.0765 11.4415 16.063C11.4415 16.0237 11.4415 15.9844 11.4415 15.944Z" fill="#637A80"/>
<path d="M16.9308 17.1339C16.9308 17.1601 16.9308 17.1863 16.9308 17.2132C16.9623 17.2263 16.9938 17.2394 17.0262 17.2529C16.8845 17.2529 16.7427 17.2529 16.5966 17.2529C16.5966 17.2267 16.5966 17.2005 16.5966 17.1736C16.7398 17.1339 16.7398 17.1339 16.9308 17.1339Z" fill="#A33D29"/>
<path d="M6.23866 11.3031C6.25441 11.3424 6.27016 11.3816 6.28639 11.4221C6.30214 11.4483 6.31789 11.4745 6.33412 11.5014C6.28687 11.5407 6.23961 11.58 6.19092 11.6204C6.15942 11.5288 6.12792 11.4372 6.09546 11.3428C6.14271 11.3297 6.18997 11.3166 6.23866 11.3031Z" fill="#140E08"/>
<path d="M10.4392 17.2925C10.4864 17.3187 10.5337 17.3448 10.5824 17.3718C10.5824 17.4111 10.5824 17.4503 10.5824 17.4908C10.5036 17.4908 10.4248 17.4908 10.3437 17.4908C10.3437 17.4384 10.3437 17.3861 10.3437 17.3321C10.3752 17.3191 10.4067 17.306 10.4392 17.2925Z" fill="#56707F"/>
<path d="M12.1098 16.6578C12.238 16.7644 12.2559 16.8711 12.3007 17.0148C12.2535 17.0345 12.2535 17.0345 12.2053 17.0545C12.2053 17.0152 12.2053 16.9759 12.2053 16.9355C12.1738 16.9355 12.1423 16.9355 12.1098 16.9355C12.1098 16.8439 12.1098 16.7522 12.1098 16.6578Z" fill="#F3D4BD"/>
<path d="M11.2506 15.5472C11.2978 15.5865 11.3451 15.6258 11.3938 15.6662C11.3308 15.7186 11.2678 15.771 11.2029 15.8249C11.1871 15.7594 11.1713 15.694 11.1551 15.6266C11.1866 15.6266 11.2181 15.6266 11.2506 15.6266C11.2506 15.6004 11.2506 15.5742 11.2506 15.5472Z" fill="#5F7993"/>
<path d="M17.0262 17.2131C17.1523 17.2131 17.2783 17.2131 17.4081 17.2131C17.4081 17.2524 17.4081 17.2917 17.4081 17.3321C17.2978 17.3321 17.1876 17.3321 17.074 17.3321C17.0582 17.2929 17.0425 17.2536 17.0262 17.2131Z" fill="#F1CFB8"/>
<path d="M11.3461 15.0316C11.3933 15.0316 11.4406 15.0316 11.4893 15.0316C11.4893 15.0971 11.4893 15.1625 11.4893 15.2299C11.442 15.2496 11.442 15.2496 11.3938 15.2696C11.3938 15.2434 11.3938 15.2172 11.3938 15.1903C11.3623 15.1903 11.3308 15.1903 11.2983 15.1903C11.3141 15.1379 11.3298 15.0856 11.3461 15.0316Z" fill="#B2A9E3"/>
<path d="M14.4009 14.397C14.6136 14.4362 14.6136 14.4362 14.8305 14.4763C14.736 14.5156 14.736 14.5156 14.6396 14.5556C14.6396 14.5295 14.6396 14.5033 14.6396 14.4763C14.5608 14.5025 14.4821 14.5287 14.4009 14.5556C14.4009 14.5033 14.4009 14.4509 14.4009 14.397Z" fill="#172225"/>
<path d="M8.24343 8.16956C8.22768 8.22191 8.21193 8.27427 8.1957 8.32821C8.10119 8.3413 8.00668 8.35439 7.9093 8.36788C8.13603 8.16956 8.13603 8.16956 8.24343 8.16956Z" fill="#1C1D14"/>
<path d="M16.2625 22.8059C16.2625 22.8321 16.2625 22.8583 16.2625 22.8852C16.294 22.8983 16.3255 22.9114 16.358 22.9249C16.2477 22.9249 16.1375 22.9249 16.0239 22.9249C16.0081 22.8987 15.9924 22.8725 15.9761 22.8456C16.0716 22.8059 16.0716 22.8059 16.2625 22.8059Z" fill="#D0BDA6"/>
<path d="M9.29356 16.0232C9.39797 16.0356 9.39797 16.0356 9.48449 16.0629C9.45299 16.089 9.42148 16.1152 9.38902 16.1422C9.37327 16.1684 9.35752 16.1945 9.34129 16.2215C9.27828 16.1953 9.21528 16.1692 9.15036 16.1422C9.21003 16.0802 9.21003 16.0802 9.29356 16.0232Z" fill="#57727D"/>
<path d="M8.38664 9.51819C8.41814 9.53128 8.44965 9.54437 8.48211 9.55785C8.4156 9.69141 8.33991 9.75562 8.19571 9.83551C8.22308 9.72178 8.23683 9.68234 8.33891 9.59752C8.35466 9.57134 8.37041 9.54516 8.38664 9.51819Z" fill="#E9E7F7"/>
</svg>
