<svg width="32" height="32" viewBox="0 0 32 32" fill="none" xmlns="http://www.w3.org/2000/svg">
<circle opacity="0.28" cx="16" cy="16" r="16" fill="#B2A9E3"/>
<path d="M14.6666 18H12C11.2927 18 10.6145 18.281 10.1144 18.781C9.61426 19.2811 9.33331 19.9594 9.33331 20.6667V22" stroke="#B2A9E3" stroke-width="1.33333" stroke-linecap="round" stroke-linejoin="round"/>
<g clip-path="url(#clip0_56_5335)">
<path d="M16.2833 18.8733C16.2347 18.6541 16.2422 18.4262 16.3051 18.2107C16.368 17.9952 16.4843 17.7991 16.6432 17.6405C16.8021 17.482 16.9984 17.3661 17.2141 17.3036C17.4297 17.2412 17.6576 17.2342 17.8767 17.2833C17.9972 17.0947 18.1633 16.9395 18.3597 16.832C18.556 16.7246 18.7762 16.6682 19 16.6682C19.2238 16.6682 19.444 16.7246 19.6404 16.832C19.8367 16.9395 20.0028 17.0947 20.1233 17.2833C20.3427 17.234 20.571 17.2409 20.787 17.3035C21.003 17.3661 21.1996 17.4823 21.3586 17.6413C21.5176 17.8003 21.6338 17.997 21.6964 18.213C21.759 18.4289 21.766 18.6572 21.7167 18.8766C21.9052 18.9972 22.0604 19.1633 22.1679 19.3596C22.2754 19.5559 22.3317 19.7761 22.3317 20C22.3317 20.2238 22.2754 20.444 22.1679 20.6403C22.0604 20.8366 21.9052 21.0027 21.7167 21.1233C21.7658 21.3423 21.7588 21.5703 21.6963 21.7859C21.6339 22.0015 21.518 22.1979 21.3594 22.3568C21.2009 22.5157 21.0047 22.632 20.7892 22.6949C20.5737 22.7578 20.3458 22.7653 20.1267 22.7166C20.0063 22.9059 19.84 23.0618 19.6434 23.1697C19.4467 23.2777 19.226 23.3343 19.0017 23.3343C18.7773 23.3343 18.5566 23.2777 18.36 23.1697C18.1633 23.0618 17.9971 22.9059 17.8767 22.7166C17.6576 22.7657 17.4297 22.7587 17.2141 22.6963C16.9984 22.6338 16.8021 22.518 16.6432 22.3594C16.4843 22.2008 16.368 22.0047 16.3051 21.7892C16.2422 21.5737 16.2347 21.3458 16.2833 21.1266C16.0933 21.0064 15.9368 20.84 15.8284 20.643C15.7199 20.446 15.663 20.2248 15.663 20C15.663 19.7751 15.7199 19.5539 15.8284 19.3569C15.9368 19.1599 16.0933 18.9935 16.2833 18.8733Z" stroke="#B2A9E3" stroke-width="0.75" stroke-linecap="round" stroke-linejoin="round"/>
<path d="M18 19.9999L18.6667 20.6666L20 19.3333" stroke="#B2A9E3" stroke-width="0.666667" stroke-linecap="round" stroke-linejoin="round"/>
</g>
<path d="M14 15.3333C15.4727 15.3333 16.6666 14.1394 16.6666 12.6667C16.6666 11.1939 15.4727 10 14 10C12.5272 10 11.3333 11.1939 11.3333 12.6667C11.3333 14.1394 12.5272 15.3333 14 15.3333Z" stroke="#B2A9E3" stroke-width="1.33333" stroke-linecap="round" stroke-linejoin="round"/>
<defs>
<clipPath id="clip0_56_5335">
<rect width="8" height="8" fill="white" transform="translate(15 16)"/>
</clipPath>
</defs>
</svg>
