<svg width="32" height="32" viewBox="0 0 32 32" fill="none" xmlns="http://www.w3.org/2000/svg">
<circle opacity="0.28" cx="16" cy="16" r="16" fill="#B2A9E3"/>
<g clip-path="url(#clip0_60_5754)">
<path d="M17.0833 9.08337V11.75C17.0833 12.1037 17.2238 12.4428 17.4738 12.6928C17.7239 12.9429 18.063 13.0834 18.4166 13.0834H21.0833" stroke="#B2A9E3" stroke-width="1.33333" stroke-linecap="round" stroke-linejoin="round"/>
<path d="M17.75 19.75C17.75 19.2196 17.5393 18.7109 17.1642 18.3358C16.7891 17.9607 16.2804 17.75 15.75 17.75C15.2196 17.75 14.7109 17.9607 14.3358 18.3358C13.9607 18.7109 13.75 19.2196 13.75 19.75" stroke="#B2A9E3" stroke-width="1.33333" stroke-linecap="round" stroke-linejoin="round"/>
<path d="M17.75 9.08337H11.75C11.3964 9.08337 11.0573 9.22385 10.8072 9.4739C10.5572 9.72395 10.4167 10.0631 10.4167 10.4167V21.0834C10.4167 21.437 10.5572 21.7761 10.8072 22.0262C11.0573 22.2762 11.3964 22.4167 11.75 22.4167H19.75C20.1036 22.4167 20.4428 22.2762 20.6928 22.0262C20.9429 21.7761 21.0834 21.437 21.0834 21.0834V12.4167L17.75 9.08337Z" stroke="#B2A9E3" stroke-width="1.33333" stroke-linecap="round" stroke-linejoin="round"/>
<path d="M15.75 17.75C16.4864 17.75 17.0834 17.1531 17.0834 16.4167C17.0834 15.6803 16.4864 15.0834 15.75 15.0834C15.0136 15.0834 14.4167 15.6803 14.4167 16.4167C14.4167 17.1531 15.0136 17.75 15.75 17.75Z" stroke="#B2A9E3" stroke-width="1.33333" stroke-linecap="round" stroke-linejoin="round"/>
</g>
<defs>
<clipPath id="clip0_60_5754">
<rect width="16" height="16" fill="white" transform="translate(7.75 7.75)"/>
</clipPath>
</defs>
</svg>
