<svg width="32" height="32" viewBox="0 0 32 32" fill="none" xmlns="http://www.w3.org/2000/svg">
<circle opacity="0.28" cx="16" cy="16" r="16" fill="#B2A9E3"/>
<path d="M10.2406 13.4101C10.1433 12.9718 10.1583 12.516 10.2841 12.085C10.4099 11.654 10.6425 11.2618 10.9603 10.9446C11.2781 10.6275 11.6708 10.3957 12.1021 10.2708C12.5334 10.1459 12.9892 10.1319 13.4273 10.2301C13.6684 9.85301 14.0006 9.54265 14.3933 9.32767C14.7859 9.11268 15.2263 9 15.674 9C16.1216 9 16.562 9.11268 16.9547 9.32767C17.3473 9.54265 17.6795 9.85301 17.9206 10.2301C18.3594 10.1315 18.816 10.1454 19.248 10.2706C19.6799 10.3958 20.0732 10.6282 20.3912 10.9462C20.7092 11.2643 20.9416 11.6575 21.0668 12.0895C21.192 12.5214 21.2059 12.978 21.1073 13.4168C21.4844 13.6579 21.7948 13.9901 22.0098 14.3828C22.2247 14.7754 22.3374 15.2158 22.3374 15.6635C22.3374 16.1111 22.2247 16.5515 22.0098 16.9442C21.7948 17.3368 21.4844 17.669 21.1073 17.9101C21.2055 18.3483 21.1915 18.8041 21.0666 19.2353C20.9417 19.6666 20.71 20.0594 20.3928 20.3772C20.0757 20.695 19.6834 20.9276 19.2524 21.0534C18.8214 21.1792 18.3656 21.1941 17.9273 21.0968C17.6865 21.4754 17.354 21.7871 16.9607 22.003C16.5674 22.219 16.126 22.3322 15.6773 22.3322C15.2286 22.3322 14.7872 22.219 14.3939 22.003C14.0006 21.7871 13.6681 21.4754 13.4273 21.0968C12.9892 21.195 12.5334 21.181 12.1021 21.0561C11.6708 20.9312 11.2781 20.6995 10.9603 20.3823C10.6425 20.0652 10.4099 19.6729 10.2841 19.2419C10.1583 18.8109 10.1433 18.3551 10.2406 17.9168C9.86059 17.6763 9.54757 17.3436 9.33066 16.9496C9.11375 16.5556 9 16.1132 9 15.6635C9 15.2137 9.11375 14.7713 9.33066 14.3773C9.54757 13.9834 9.86059 13.6506 10.2406 13.4101Z" stroke="#B2A9E3" stroke-width="1.33333" stroke-linecap="round" stroke-linejoin="round"/>
<path d="M13.4472 12.6695H18.556V13.3994H16.3209C16.5703 13.6001 16.7254 13.8646 16.7862 14.1931H18.556V14.9229H16.7679C16.701 15.2087 16.5703 15.4551 16.3756 15.6618C16.1871 15.8625 15.956 15.9994 15.6823 16.0724C15.9499 16.1271 16.1628 16.2427 16.3209 16.419C16.4851 16.5954 16.6159 16.8509 16.7132 17.1854L17.2788 19.165H16.3939L15.8921 17.3587C15.7948 17.0181 15.658 16.784 15.4816 16.6562C15.3052 16.5224 15.0346 16.4555 14.6697 16.4555H13.4472V15.7166H14.8339C15.1623 15.7166 15.4117 15.6558 15.582 15.5341C15.7583 15.4064 15.8708 15.2027 15.9195 14.9229H13.4472V14.1931H15.9286C15.886 13.9133 15.7766 13.7126 15.6002 13.5909C15.4299 13.4632 15.1745 13.3994 14.8339 13.3994H13.4472V12.6695Z" fill="#B2A9E3"/>
</svg>
