<svg width="25" height="24" viewBox="0 0 25 24" fill="none" xmlns="http://www.w3.org/2000/svg">
<path d="M10.25 5.25H6.5C6.08579 5.25 5.75 5.58579 5.75 6V11.25C5.75 11.6642 6.08579 12 6.5 12H10.25C10.6642 12 11 11.6642 11 11.25V6C11 5.58579 10.6642 5.25 10.25 5.25Z" stroke="#3F3F46" stroke-width="1.04167" stroke-linecap="round" stroke-linejoin="round"/>
<path d="M18.5 5.25H14.75C14.3358 5.25 14 5.58579 14 6V8.25C14 8.66421 14.3358 9 14.75 9H18.5C18.9142 9 19.25 8.66421 19.25 8.25V6C19.25 5.58579 18.9142 5.25 18.5 5.25Z" stroke="#3F3F46" stroke-width="1.04167" stroke-linecap="round" stroke-linejoin="round"/>
<path d="M18.5 12H14.75C14.3358 12 14 12.3358 14 12.75V18C14 18.4142 14.3358 18.75 14.75 18.75H18.5C18.9142 18.75 19.25 18.4142 19.25 18V12.75C19.25 12.3358 18.9142 12 18.5 12Z" stroke="#3F3F46" stroke-width="1.04167" stroke-linecap="round" stroke-linejoin="round"/>
<path d="M10.25 15H6.5C6.08579 15 5.75 15.3358 5.75 15.75V18C5.75 18.4142 6.08579 18.75 6.5 18.75H10.25C10.6642 18.75 11 18.4142 11 18V15.75C11 15.3358 10.6642 15 10.25 15Z" stroke="#3F3F46" stroke-width="1.04167" stroke-linecap="round" stroke-linejoin="round"/>
</svg>
