<svg width="19" height="18" viewBox="0 0 19 18" fill="none" xmlns="http://www.w3.org/2000/svg">
<path d="M10.625 6H8.375" stroke="#3F3F46" stroke-width="1.04167" stroke-linecap="round" stroke-linejoin="round"/>
<path d="M11.75 1.5L11 3H13.25C13.6478 3 14.0294 3.15804 14.3107 3.43934C14.592 3.72064 14.75 4.10218 14.75 4.5V15C14.75 15.3978 14.592 15.7794 14.3107 16.0607C14.0294 16.342 13.6478 16.5 13.25 16.5H5.75C5.35218 16.5 4.97064 16.342 4.68934 16.0607C4.40804 15.7794 4.25 15.3978 4.25 15V4.5C4.25 4.10218 4.40804 3.72064 4.68934 3.43934C4.97064 3.15804 5.35218 3 5.75 3H8" stroke="#3F3F46" stroke-width="1.04167" stroke-linecap="round" stroke-linejoin="round"/>
<path d="M13.1742 16.5C13.0017 15.6526 12.5417 14.891 11.872 14.3439C11.2024 13.7969 10.3643 13.498 9.49958 13.498C8.63488 13.498 7.79676 13.7969 7.12711 14.3439C6.45746 14.891 5.99745 15.6526 5.82495 16.5" stroke="#3F3F46" stroke-width="1.04167" stroke-linecap="round" stroke-linejoin="round"/>
<path d="M7.25 1.5L9.5 6" stroke="#3F3F46" stroke-width="1.04167" stroke-linecap="round" stroke-linejoin="round"/>
<path d="M9.5 13.5C10.7426 13.5 11.75 12.4926 11.75 11.25C11.75 10.0074 10.7426 9 9.5 9C8.25736 9 7.25 10.0074 7.25 11.25C7.25 12.4926 8.25736 13.5 9.5 13.5Z" stroke="#3F3F46" stroke-width="1.04167" stroke-linecap="round" stroke-linejoin="round"/>
</svg>
