<svg width="32" height="32" viewBox="0 0 32 32" fill="none" xmlns="http://www.w3.org/2000/svg">
<circle opacity="0.28" cx="16" cy="16" r="16" fill="#B2A9E3"/>
<path d="M21.7608 19.4262C21.8344 19.4887 21.908 19.5513 21.9837 19.6157C23.6475 21.0779 24.7334 23.1449 24.9765 25.3763C24.99 25.6449 24.9937 25.913 24.9952 26.182C24.9975 26.2872 24.9975 26.2872 24.9999 26.3946C25.0022 26.8005 24.9779 27.0865 24.7521 27.4359C24.276 27.9108 23.8453 27.9929 23.2081 27.9898C23.144 27.9901 23.0798 27.9904 23.0138 27.9907C22.7993 27.9914 22.5849 27.9911 22.3705 27.9908C22.2166 27.9912 22.0626 27.9916 21.9087 27.992C21.4909 27.993 21.0731 27.9931 20.6553 27.9929C20.3065 27.9928 19.9577 27.9932 19.6089 27.9936C18.7859 27.9944 17.963 27.9944 17.1401 27.994C16.2912 27.9935 15.4423 27.9945 14.5934 27.9961C13.8644 27.9974 13.1354 27.9979 12.4064 27.9976C11.9711 27.9975 11.5358 27.9977 11.1005 27.9988C10.6911 27.9997 10.2818 27.9996 9.87241 27.9986C9.72226 27.9984 9.5721 27.9986 9.42194 27.9992C9.2168 28 9.01171 27.9994 8.80658 27.9984C8.71767 27.9993 8.71767 27.9993 8.62696 28.0001C8.14487 27.9954 7.79847 27.8881 7.42132 27.5646C7.09427 27.1662 6.9905 26.8201 7.00067 26.306C7.00143 26.2495 7.00219 26.193 7.00297 26.1348C7.07038 23.6126 8.23207 21.3664 9.99255 19.6494C10.4386 19.2303 10.9143 18.8919 11.4409 18.5871C11.4874 18.5597 11.5339 18.5323 11.5818 18.5041C14.7856 16.6506 18.9369 17.0197 21.7608 19.4262Z" fill="#B2A9E3"/>
<path d="M19.6767 5.40426C20.6481 6.31395 21.1072 7.49655 21.4729 8.75595C21.5072 8.87194 21.5416 8.98791 21.5761 9.10386C21.6657 9.406 21.7543 9.70843 21.8426 10.0109C21.933 10.3196 22.0244 10.6279 22.1157 10.9363C22.2487 11.3861 22.3814 11.836 22.5131 12.2861C22.5527 12.4212 22.5527 12.4212 22.593 12.5591C22.7422 13.0828 22.8242 13.5741 22.654 14.1053C22.4212 14.4424 22.1485 14.7174 21.7612 14.8491C21.608 14.8568 21.4545 14.86 21.3011 14.8608C21.2047 14.8615 21.1084 14.8621 21.0091 14.8628C20.9021 14.8631 20.7951 14.8635 20.6881 14.8638C20.5756 14.8644 20.463 14.865 20.3505 14.8657C19.9807 14.8677 19.6109 14.8688 19.2411 14.8699C19.1138 14.8703 18.9864 14.8707 18.859 14.8711C18.329 14.8728 17.7991 14.8742 17.2691 14.8751C16.5101 14.8763 15.7511 14.8789 14.992 14.8832C14.4581 14.8862 13.9242 14.8876 13.3902 14.888C13.0715 14.8883 12.7527 14.8892 12.434 14.8917C12.1338 14.894 11.8338 14.8945 11.5337 14.8936C11.4238 14.8936 11.314 14.8942 11.2041 14.8956C10.6018 14.9025 10.1043 14.9063 9.64649 14.4676C9.3023 14.0265 9.25535 13.7242 9.27258 13.1708C9.324 12.9319 9.324 12.9319 9.39708 12.6872C9.42432 12.5947 9.45156 12.5022 9.47962 12.407C9.50981 12.3072 9.54002 12.2074 9.57025 12.1076C9.60127 12.0034 9.63223 11.8992 9.66313 11.7949C9.74458 11.5208 9.82693 11.2469 9.90944 10.9731C9.97572 10.7525 10.0414 10.5318 10.107 10.3111C10.1864 10.0438 10.2662 9.77649 10.3461 9.50924C10.3609 9.45989 10.3756 9.41053 10.3908 9.35968C10.5516 8.82187 10.7163 8.28533 10.8875 7.75086C10.9164 7.66046 10.9452 7.57006 10.975 7.47692C11.4817 6.07194 12.6095 5.05051 13.91 4.41735C15.8804 3.57659 18.0502 4.05663 19.6767 5.40426Z" fill="#B2A9E3"/>
</svg>
