<svg width="32" height="32" viewBox="0 0 32 32" fill="none" xmlns="http://www.w3.org/2000/svg">
<circle opacity="0.28" cx="16" cy="16" r="16" fill="#B2A9E3"/>
<path d="M22.6667 12.667H9.33333C8.8731 12.667 8.5 13.0401 8.5 13.5003V15.167C8.5 15.6272 8.8731 16.0003 9.33333 16.0003H22.6667C23.1269 16.0003 23.5 15.6272 23.5 15.167V13.5003C23.5 13.0401 23.1269 12.667 22.6667 12.667Z" stroke="#B2A9E3" stroke-width="1.04167" stroke-linecap="round" stroke-linejoin="round"/>
<path d="M16 12.667V23.5003" stroke="#B2A9E3" stroke-width="1.04167" stroke-linecap="round" stroke-linejoin="round"/>
<path d="M21.8333 16V21.8333C21.8333 22.2754 21.6577 22.6993 21.3451 23.0118C21.0326 23.3244 20.6087 23.5 20.1666 23.5H11.8333C11.3913 23.5 10.9673 23.3244 10.6548 23.0118C10.3422 22.6993 10.1666 22.2754 10.1666 21.8333V16" stroke="#B2A9E3" stroke-width="1.04167" stroke-linecap="round" stroke-linejoin="round"/>
<path d="M12.25 12.667C11.6974 12.667 11.1675 12.4475 10.7768 12.0568C10.3861 11.6661 10.1666 11.1362 10.1666 10.5837C10.1666 10.0312 10.3861 9.50126 10.7768 9.11056C11.1675 8.71986 11.6974 8.50036 12.25 8.50036C13.0539 8.48636 13.8416 8.87641 14.5106 9.61966C15.1795 10.3629 15.6985 11.4249 16 12.667C16.3014 11.4249 16.8204 10.3629 17.4893 9.61966C18.1583 8.87641 18.9461 8.48636 19.75 8.50036C20.3025 8.50036 20.8324 8.71986 21.2231 9.11056C21.6138 9.50126 21.8333 10.0312 21.8333 10.5837C21.8333 11.1362 21.6138 11.6661 21.2231 12.0568C20.8324 12.4475 20.3025 12.667 19.75 12.667" stroke="#B2A9E3" stroke-width="1.04167" stroke-linecap="round" stroke-linejoin="round"/>
</svg>
