<svg width="25" height="24" viewBox="0 0 25 24" fill="none" xmlns="http://www.w3.org/2000/svg">
<g clip-path="url(#clip0_22_673)">
<path d="M12.5 18H4.5C3.96957 18 3.46086 17.7893 3.08579 17.4142C2.71071 17.0391 2.5 16.5304 2.5 16V8C2.5 7.46957 2.71071 6.96086 3.08579 6.58579C3.46086 6.21071 3.96957 6 4.5 6H20.5C21.0304 6 21.5391 6.21071 21.9142 6.58579C22.2893 6.96086 22.5 7.46957 22.5 8V13" stroke="#3F3F46" stroke-width="1.5" stroke-linecap="round" stroke-linejoin="round"/>
<path d="M18.5 12H18.51" stroke="#3F3F46" stroke-width="1.5" stroke-linecap="round" stroke-linejoin="round"/>
<path d="M19.5 22V16" stroke="#3F3F46" stroke-width="1.5" stroke-linecap="round" stroke-linejoin="round"/>
<path d="M22.5 19L19.5 16L16.5 19" stroke="#3F3F46" stroke-width="1.5" stroke-linecap="round" stroke-linejoin="round"/>
<path d="M6.5 12H6.51" stroke="#3F3F46" stroke-width="1.5" stroke-linecap="round" stroke-linejoin="round"/>
<path d="M14.9566 10.5675L14.7074 11.487H10.0505L10.3031 10.5675H14.9566ZM12.6158 16L10.1593 13.0451L10.1557 12.266H11.37C11.6601 12.266 11.9022 12.2181 12.0964 12.1222C12.2929 12.0239 12.4415 11.887 12.5421 11.7116C12.6451 11.5338 12.6965 11.3255 12.6965 11.0869C12.6965 10.7289 12.5912 10.4412 12.3807 10.2236C12.1701 10.006 11.8332 9.89723 11.37 9.89723H10.0505L10.3242 8.81283H11.37C11.9596 8.81283 12.4474 8.90408 12.8334 9.08656C13.2218 9.26671 13.5119 9.52172 13.7037 9.8516C13.8979 10.1815 13.995 10.5675 13.995 11.0097C13.995 11.4004 13.9236 11.749 13.7809 12.0555C13.6382 12.362 13.4136 12.6135 13.1071 12.81C12.8006 13.0065 12.3994 13.1375 11.9034 13.203L11.8613 13.2171L14.0792 15.9368V16H12.6158ZM14.9636 8.81283L14.7074 9.74632L10.9313 9.73229L11.1875 8.81283H14.9636Z" fill="#3F3F46"/>
</g>
<defs>
<clipPath id="clip0_22_673">
<rect width="24" height="24" fill="white" transform="translate(0.5)"/>
</clipPath>
</defs>
</svg>
