<svg width="19" height="18" viewBox="0 0 19 18" fill="none" xmlns="http://www.w3.org/2000/svg">
<path d="M9.5 9H9.50667" stroke="#3F3F46" stroke-linecap="round" stroke-linejoin="round"/>
<path d="M12.5 4.5V3C12.5 2.60218 12.342 2.22064 12.0607 1.93934C11.7794 1.65804 11.3978 1.5 11 1.5H8C7.60218 1.5 7.22064 1.65804 6.93934 1.93934C6.65804 2.22064 6.5 2.60218 6.5 3V4.5" stroke="#3F3F46" stroke-linecap="round" stroke-linejoin="round"/>
<path d="M17 9.75C14.7746 11.2192 12.1667 12.0025 9.5 12.0025C6.83334 12.0025 4.22541 11.2192 2 9.75" stroke="#3F3F46" stroke-linecap="round" stroke-linejoin="round"/>
<path d="M15.5 4.5H3.5C2.67157 4.5 2 5.17157 2 6V13.5C2 14.3284 2.67157 15 3.5 15H15.5C16.3284 15 17 14.3284 17 13.5V6C17 5.17157 16.3284 4.5 15.5 4.5Z" stroke="#3F3F46" stroke-linecap="round" stroke-linejoin="round"/>
</svg>
