<svg width="25" height="24" viewBox="0 0 25 24" fill="none" xmlns="http://www.w3.org/2000/svg">
<path d="M19.25 15H16.25C15.8358 15 15.5 15.3358 15.5 15.75V18.75C15.5 19.1642 15.8358 19.5 16.25 19.5H19.25C19.6642 19.5 20 19.1642 20 18.75V15.75C20 15.3358 19.6642 15 19.25 15Z" stroke="#3F3F46" stroke-width="1.04167" stroke-linecap="round" stroke-linejoin="round"/>
<path d="M8.75 15H5.75C5.33579 15 5 15.3358 5 15.75V18.75C5 19.1642 5.33579 19.5 5.75 19.5H8.75C9.16421 19.5 9.5 19.1642 9.5 18.75V15.75C9.5 15.3358 9.16421 15 8.75 15Z" stroke="#3F3F46" stroke-width="1.04167" stroke-linecap="round" stroke-linejoin="round"/>
<path d="M14 4.5H11C10.5858 4.5 10.25 4.83579 10.25 5.25V8.25C10.25 8.66421 10.5858 9 11 9H14C14.4142 9 14.75 8.66421 14.75 8.25V5.25C14.75 4.83579 14.4142 4.5 14 4.5Z" stroke="#3F3F46" stroke-width="1.04167" stroke-linecap="round" stroke-linejoin="round"/>
<path d="M7.25 15V12.75C7.25 12.5511 7.32902 12.3603 7.46967 12.2197C7.61032 12.079 7.80109 12 8 12H17C17.1989 12 17.3897 12.079 17.5303 12.2197C17.671 12.3603 17.75 12.5511 17.75 12.75V15" stroke="#3F3F46" stroke-width="1.04167" stroke-linecap="round" stroke-linejoin="round"/>
<path d="M12.5 12V9" stroke="#3F3F46" stroke-width="1.04167" stroke-linecap="round" stroke-linejoin="round"/>
</svg>
