<svg width="32" height="32" viewBox="0 0 32 32" fill="none" xmlns="http://www.w3.org/2000/svg">
<circle opacity="0.28" cx="16" cy="16" r="16" fill="#B2A9E3"/>
<path d="M22.2105 18.8943C23.8016 20.3938 24.9012 22.5645 24.9871 24.7648C24.9895 24.9 24.9914 25.0353 24.9929 25.1705C24.9952 25.2381 24.9975 25.3056 24.9998 25.3752C25.0044 25.846 24.9322 26.116 24.6561 26.5C24.517 26.6363 24.517 26.6363 24.3828 26.7249C24.3385 26.7553 24.2942 26.7858 24.2485 26.8172C23.9067 26.9988 23.552 26.9807 23.1736 26.9803C23.0786 26.9806 23.0786 26.9806 22.9818 26.981C22.7694 26.9817 22.5571 26.9818 22.3447 26.9819C22.1925 26.9823 22.0404 26.9826 21.8882 26.9831C21.4746 26.9841 21.061 26.9846 20.6474 26.9849C20.389 26.9852 20.1306 26.9855 19.8722 26.9858C19.0636 26.9869 18.255 26.9877 17.4464 26.988C16.5131 26.9883 15.5798 26.9897 14.6465 26.992C13.9251 26.9937 13.2036 26.9944 12.4821 26.9945C12.0513 26.9946 11.6204 26.9951 11.1895 26.9965C10.7841 26.9978 10.3787 26.9979 9.97333 26.9973C9.82473 26.9972 9.67612 26.9975 9.52752 26.9983C9.32424 26.9993 9.12101 26.9988 8.91773 26.998C8.83007 26.999 8.83007 26.999 8.74064 26.9999C8.27532 26.9956 7.83618 26.9072 7.46905 26.6002C7.43351 26.5543 7.39797 26.5083 7.36136 26.4609C7.32441 26.415 7.28746 26.369 7.24939 26.3216C6.82646 25.6768 7.04017 24.4175 7.17586 23.6943C7.2198 23.5078 7.26698 23.322 7.31742 23.1371C7.3431 23.0427 7.36877 22.9484 7.39522 22.8511C7.7495 21.6825 8.33625 20.6342 9.11377 19.6959C9.17025 19.6257 9.22673 19.5554 9.28493 19.483C10.7345 17.7761 12.9439 16.6966 15.1658 16.4992C17.8483 16.3655 20.1774 17.1352 22.2105 18.8943Z" fill="#B2A9E3"/>
<path d="M18.9477 3.99433C19.9682 4.82541 20.6402 5.87084 20.8526 7.18268C20.8745 7.43897 20.8788 7.69297 20.877 7.9501C20.8766 8.01865 20.8762 8.08721 20.8757 8.15784C20.8491 9.58899 20.2236 10.7372 19.2125 11.7285C18.242 12.5531 16.9833 12.9531 15.7189 12.9133C14.304 12.7948 13.137 12.2125 12.1833 11.1713C11.1617 9.96151 10.9793 8.55382 11.0899 7.02627C11.1408 6.666 11.2529 6.34086 11.4023 6.00956C11.4354 5.93546 11.4685 5.86136 11.5026 5.78502C11.7764 5.23442 12.1421 4.801 12.5738 4.36719C12.6218 4.31729 12.6698 4.26738 12.7193 4.21597C14.3645 2.63202 17.1743 2.63527 18.9477 3.99433Z" fill="#B2A9E3"/>
</svg>
