<svg width="19" height="18" viewBox="0 0 19 18" fill="none" xmlns="http://www.w3.org/2000/svg">
<path d="M14.75 5.25V3C14.75 2.80109 14.671 2.61032 14.5303 2.46967C14.3897 2.32902 14.1989 2.25 14 2.25H4.25C3.85218 2.25 3.47064 2.40804 3.18934 2.68934C2.90804 2.97064 2.75 3.35218 2.75 3.75C2.75 4.14782 2.90804 4.52936 3.18934 4.81066C3.47064 5.09196 3.85218 5.25 4.25 5.25H15.5C15.6989 5.25 15.8897 5.32902 16.0303 5.46967C16.171 5.61032 16.25 5.80109 16.25 6V9M16.25 9H14C13.6022 9 13.2206 9.15804 12.9393 9.43934C12.658 9.72064 12.5 10.1022 12.5 10.5C12.5 10.8978 12.658 11.2794 12.9393 11.5607C13.2206 11.842 13.6022 12 14 12H16.25C16.4489 12 16.6397 11.921 16.7803 11.7803C16.921 11.6397 17 11.4489 17 11.25V9.75C17 9.55109 16.921 9.36032 16.7803 9.21967C16.6397 9.07902 16.4489 9 16.25 9Z" stroke="#3F3F46" stroke-width="1.04167" stroke-linecap="round" stroke-linejoin="round"/>
<path d="M2.75 3.75V14.25C2.75 14.6478 2.90804 15.0294 3.18934 15.3107C3.47064 15.592 3.85218 15.75 4.25 15.75H15.5C15.6989 15.75 15.8897 15.671 16.0303 15.5303C16.171 15.3897 16.25 15.1989 16.25 15V12" stroke="#3F3F46" stroke-width="1.04167" stroke-linecap="round" stroke-linejoin="round"/>
</svg>
