<svg width="32" height="32" viewBox="0 0 32 32" fill="none" xmlns="http://www.w3.org/2000/svg">
<circle opacity="0.28" cx="16" cy="16" r="16" fill="#B2A9E3"/>
<path d="M21.8333 11.8333V9.33333C21.8333 9.11232 21.7455 8.90036 21.5893 8.74408C21.433 8.5878 21.221 8.5 21 8.5H10.1667C9.72464 8.5 9.30072 8.67559 8.98816 8.98816C8.67559 9.30072 8.5 9.72464 8.5 10.1667C8.5 10.6087 8.67559 11.0326 8.98816 11.3452C9.30072 11.6577 9.72464 11.8333 10.1667 11.8333H22.6667C22.8877 11.8333 23.0996 11.9211 23.2559 12.0774C23.4122 12.2337 23.5 12.4457 23.5 12.6667V16M23.5 16H21C20.558 16 20.134 16.1756 19.8215 16.4882C19.5089 16.8007 19.3333 17.2246 19.3333 17.6667C19.3333 18.1087 19.5089 18.5326 19.8215 18.8452C20.134 19.1577 20.558 19.3333 21 19.3333H23.5C23.721 19.3333 23.933 19.2455 24.0893 19.0893C24.2455 18.933 24.3333 18.721 24.3333 18.5V16.8333C24.3333 16.6123 24.2455 16.4004 24.0893 16.2441C23.933 16.0878 23.721 16 23.5 16Z" stroke="#B2A9E3" stroke-width="1.04167" stroke-linecap="round" stroke-linejoin="round"/>
<path d="M8.5 10.167V21.8337C8.5 22.2757 8.67559 22.6996 8.98816 23.0122C9.30072 23.3247 9.72464 23.5003 10.1667 23.5003H22.6667C22.8877 23.5003 23.0996 23.4125 23.2559 23.2562C23.4122 23.1 23.5 22.888 23.5 22.667V19.3337" stroke="#B2A9E3" stroke-width="1.04167" stroke-linecap="round" stroke-linejoin="round"/>
</svg>
