<svg width="25" height="24" viewBox="0 0 25 24" fill="none" xmlns="http://www.w3.org/2000/svg">
<path d="M14.75 4.5C15.1478 4.50008 15.5293 4.65818 15.8105 4.9395L18.8105 7.9395C19.0918 8.22074 19.2499 8.60221 19.25 9V14.25C19.25 14.6478 19.092 15.0294 18.8107 15.3107C18.5294 15.592 18.1478 15.75 17.75 15.75H11.75C11.3522 15.75 10.9706 15.592 10.6893 15.3107C10.408 15.0294 10.25 14.6478 10.25 14.25V6C10.25 5.60218 10.408 5.22064 10.6893 4.93934C10.9706 4.65804 11.3522 4.5 11.75 4.5H14.75Z" stroke="#3F3F46" stroke-width="1.04167" stroke-linecap="round" stroke-linejoin="round"/>
<path d="M14.75 4.5V7.5C14.75 7.89782 14.908 8.27936 15.1893 8.56066C15.4706 8.84196 15.8522 9 16.25 9H19.25" stroke="#3F3F46" stroke-width="1.04167" stroke-linecap="round" stroke-linejoin="round"/>
<path d="M7.25 8.25C6.85218 8.25 6.47064 8.40804 6.18934 8.68934C5.90804 8.97064 5.75 9.35218 5.75 9.75V18C5.75 18.3978 5.90804 18.7794 6.18934 19.0607C6.47064 19.342 6.85218 19.5 7.25 19.5H13.25C13.5133 19.5 13.772 19.4307 14 19.299C14.228 19.1674 14.4174 18.978 14.549 18.75" stroke="#3F3F46" stroke-width="1.04167" stroke-linecap="round" stroke-linejoin="round"/>
</svg>
