<svg width="32" height="32" viewBox="0 0 32 32" fill="none" xmlns="http://www.w3.org/2000/svg">
<circle opacity="0.28" cx="16" cy="16" r="16" fill="#B2A9E3"/>
<path d="M16 20H10.6666C10.313 20 9.97389 19.8595 9.72384 19.6095C9.47379 19.3594 9.33331 19.0203 9.33331 18.6667V13.3333C9.33331 12.9797 9.47379 12.6406 9.72384 12.3905C9.97389 12.1405 10.313 12 10.6666 12H21.3333C21.6869 12 22.0261 12.1405 22.2761 12.3905C22.5262 12.6406 22.6666 12.9797 22.6666 13.3333V16.6667" stroke="#B2A9E3" stroke-width="1.33333" stroke-linecap="round" stroke-linejoin="round"/>
<path d="M22.6667 20.6666L20.6667 18.6666L18.6667 20.6666" stroke="#B2A9E3" stroke-width="1.33333" stroke-linecap="round" stroke-linejoin="round"/>
<path d="M20.0067 16H20" stroke="#B2A9E3" stroke-width="1.33333" stroke-linecap="round" stroke-linejoin="round"/>
<path d="M20.6667 22.6666V18.6666" stroke="#B2A9E3" stroke-width="1.33333" stroke-linecap="round" stroke-linejoin="round"/>
<path d="M12 16H12.0067" stroke="#B2A9E3" stroke-width="1.33333" stroke-linecap="round" stroke-linejoin="round"/>
<path d="M17.6377 14.8783L17.4716 15.4913H14.367L14.5354 14.8783H17.6377ZM16.0772 18.5L14.4395 16.5301L14.4372 16.0107H15.2467C15.4401 16.0107 15.6015 15.9787 15.7309 15.9148C15.862 15.8493 15.961 15.758 16.0281 15.641C16.0967 15.5225 16.131 15.3837 16.131 15.2246C16.131 14.986 16.0608 14.7941 15.9205 14.6491C15.7801 14.504 15.5555 14.4315 15.2467 14.4315H14.367L14.5495 13.7086H15.2467C15.6397 13.7086 15.9649 13.7694 16.2223 13.891C16.4812 14.0111 16.6746 14.1811 16.8025 14.4011C16.9319 14.621 16.9967 14.8783 16.9967 15.1731C16.9967 15.4336 16.9491 15.666 16.8539 15.8703C16.7588 16.0746 16.6091 16.2423 16.4047 16.3733C16.2004 16.5043 15.9329 16.5917 15.6023 16.6354L15.5742 16.6447L17.0528 18.4579V18.5H16.0772ZM17.6424 13.7086L17.4716 14.3309L14.9542 14.3215L15.125 13.7086H17.6424Z" fill="#B2A9E3"/>
</svg>
