<svg width="21" height="20" viewBox="0 0 21 20" fill="none" xmlns="http://www.w3.org/2000/svg">
<path d="M8.82463 2.31731C9.25103 0.560897 11.749 0.560897 12.1754 2.31731C12.4508 3.45193 13.7507 3.99038 14.7478 3.38285C16.2913 2.44239 18.0576 4.2087 17.1172 5.75218C16.5096 6.74925 17.0481 8.04918 18.1827 8.32463C19.9391 8.75103 19.9391 11.249 18.1827 11.6754C17.0481 11.9508 16.5096 13.2507 17.1172 14.2478C18.0576 15.7913 16.2913 17.5576 14.7478 16.6172C13.7507 16.0096 12.4508 16.5481 12.1754 17.6827C11.749 19.4391 9.25103 19.4391 8.82463 17.6827C8.54918 16.5481 7.24926 16.0096 6.25219 16.6172C4.7087 17.5576 2.94239 15.7913 3.88285 14.2478C4.49038 13.2507 3.95193 11.9508 2.81731 11.6754C1.0609 11.249 1.0609 8.75103 2.81731 8.32463C3.95193 8.04918 4.49037 6.74926 3.88285 5.75218C2.94239 4.2087 4.7087 2.44239 6.25219 3.38285C7.24926 3.99037 8.54918 3.45193 8.82463 2.31731Z" stroke="#3F3F46" stroke-width="1.2" stroke-linecap="round" stroke-linejoin="round"/>
<path d="M13.5 10C13.5 11.6569 12.1569 13 10.5 13C8.84315 13 7.5 11.6569 7.5 10C7.5 8.34315 8.84315 7 10.5 7C12.1569 7 13.5 8.34315 13.5 10Z" stroke="#3F3F46" stroke-width="1.2" stroke-linecap="round" stroke-linejoin="round"/>
</svg>
