<svg width="32" height="32" viewBox="0 0 32 32" fill="none" xmlns="http://www.w3.org/2000/svg">
<circle opacity="0.28" cx="16" cy="16" r="16" fill="#B2A9E3"/>
<path d="M22.6667 16.8331C22.6667 20.9997 19.75 23.0831 16.2834 24.2914C16.1018 24.3529 15.9047 24.35 15.725 24.2831C12.25 23.0831 9.33337 20.9997 9.33337 16.8331V10.9997C9.33337 10.7787 9.42117 10.5667 9.57745 10.4105C9.73373 10.2542 9.94569 10.1664 10.1667 10.1664C11.8334 10.1664 13.9167 9.16639 15.3667 7.89972C15.5433 7.74889 15.7678 7.66602 16 7.66602C16.2322 7.66602 16.4568 7.74889 16.6334 7.89972C18.0917 9.17472 20.1667 10.1664 21.8334 10.1664C22.0544 10.1664 22.2663 10.2542 22.4226 10.4105C22.5789 10.5667 22.6667 10.7787 22.6667 10.9997V16.8331Z" stroke="#B2A9E3" stroke-width="1.04167" stroke-linecap="round" stroke-linejoin="round"/>
<path d="M11.3134 21.7587C11.6689 20.8022 12.3087 19.9774 13.1467 19.395C13.9847 18.8127 14.9808 18.5007 16.0013 18.501C17.0218 18.5012 18.0177 18.8138 18.8554 19.3965C19.6931 19.9793 20.3324 20.8045 20.6875 21.7612" stroke="#B2A9E3" stroke-width="1.04167" stroke-linecap="round" stroke-linejoin="round"/>
<path d="M16 18.4997C17.8409 18.4997 19.3333 17.0073 19.3333 15.1663C19.3333 13.3254 17.8409 11.833 16 11.833C14.159 11.833 12.6666 13.3254 12.6666 15.1663C12.6666 17.0073 14.159 18.4997 16 18.4997Z" stroke="#B2A9E3" stroke-width="1.04167" stroke-linecap="round" stroke-linejoin="round"/>
</svg>
