<svg width="25" height="24" viewBox="0 0 25 24" fill="none" xmlns="http://www.w3.org/2000/svg">
<path d="M18.5 12.7503C18.5 16.5003 15.875 18.3753 12.755 19.4628C12.5916 19.5182 12.4142 19.5156 12.2525 19.4553C9.125 18.3753 6.5 16.5003 6.5 12.7503V7.50034C6.5 7.30142 6.57902 7.11066 6.71967 6.97001C6.86032 6.82936 7.05109 6.75034 7.25 6.75034C8.75 6.75034 10.625 5.85034 11.93 4.71034C12.0889 4.57459 12.291 4.5 12.5 4.5C12.709 4.5 12.9111 4.57459 13.07 4.71034C14.3825 5.85784 16.25 6.75034 17.75 6.75034C17.9489 6.75034 18.1397 6.82936 18.2803 6.97001C18.421 7.11066 18.5 7.30142 18.5 7.50034V12.7503Z" stroke="#3F3F46" stroke-width="1.04167" stroke-linecap="round" stroke-linejoin="round"/>
<path d="M8.28198 17.1829C8.60202 16.322 9.1778 15.5797 9.932 15.0556C10.6862 14.5315 11.5827 14.2507 12.5011 14.251C13.4196 14.2512 14.3159 14.5325 15.0699 15.057C15.8238 15.5815 16.3992 16.3241 16.7187 17.1852" stroke="#3F3F46" stroke-width="1.04167" stroke-linecap="round" stroke-linejoin="round"/>
<path d="M12.5 14.25C14.1569 14.25 15.5 12.9069 15.5 11.25C15.5 9.59315 14.1569 8.25 12.5 8.25C10.8431 8.25 9.5 9.59315 9.5 11.25C9.5 12.9069 10.8431 14.25 12.5 14.25Z" stroke="#3F3F46" stroke-width="1.04167" stroke-linecap="round" stroke-linejoin="round"/>
</svg>
